<mxfile host="app.diagrams.net" agent="Mozilla/5.0 (Windows NT 10.0; Win64; x64) AppleWebKit/537.36 (KHTML, like Gecko) Chrome/132.0.0.0 Safari/537.36" version="26.0.8" pages="2">
  <diagram name="High-Level Design" id="ZBv1_KpZOwENfsu05lCq">
    <mxGraphModel dx="3000" dy="1606" grid="1" gridSize="10" guides="1" tooltips="1" connect="1" arrows="1" fold="1" page="1" pageScale="1" pageWidth="1800" pageHeight="1800" math="0" shadow="0">
      <root>
        <mxCell id="0" />
        <mxCell id="1" parent="0" />
        <mxCell id="a4dYiFUCV8rvkUewJ64A-9" value="" style="verticalLabelPosition=bottom;verticalAlign=top;html=1;shape=mxgraph.basic.rect;fillColor2=none;strokeWidth=1;size=20;indent=5;fillColor=none;fontFamily=Comic Sans MS;" vertex="1" parent="1">
          <mxGeometry x="745" y="1090" width="520" height="200" as="geometry" />
        </mxCell>
        <mxCell id="qNN8WSwoeSZNNqFQAVAW-3" value="IoT Sensors" style="shape=ext;double=1;rounded=1;whiteSpace=wrap;html=1;fillColor=#e1d5e7;strokeColor=light-dark(#050505, #9577a3);fontFamily=Comic Sans MS;" parent="1" vertex="1">
          <mxGeometry x="1406.25" y="170" width="120" height="80" as="geometry" />
        </mxCell>
        <mxCell id="qNN8WSwoeSZNNqFQAVAW-5" value="DNS Load Balancers" style="shape=ext;double=1;rounded=0;whiteSpace=wrap;html=1;fillColor=#f8cecc;strokeColor=#000000;fontFamily=Comic Sans MS;" parent="1" vertex="1">
          <mxGeometry x="1171.25" y="170" width="135" height="80" as="geometry" />
        </mxCell>
        <mxCell id="qNN8WSwoeSZNNqFQAVAW-10" value="DNS Load Balancers" style="shape=ext;double=1;rounded=0;whiteSpace=wrap;html=1;fillColor=#f8cecc;strokeColor=light-dark(#050505, #9577a3);fontFamily=Comic Sans MS;" parent="1" vertex="1">
          <mxGeometry x="871.25" y="150" width="135" height="80" as="geometry" />
        </mxCell>
        <mxCell id="qNN8WSwoeSZNNqFQAVAW-11" value="DNS Load Balancers" style="shape=ext;double=1;rounded=0;whiteSpace=wrap;html=1;fillColor=#f8cecc;strokeColor=light-dark(#050505, #9577a3);fontFamily=Comic Sans MS;" parent="1" vertex="1">
          <mxGeometry x="881.25" y="160" width="135" height="80" as="geometry" />
        </mxCell>
        <mxCell id="qNN8WSwoeSZNNqFQAVAW-12" value="Load Balancers" style="shape=ext;double=1;rounded=0;whiteSpace=wrap;html=1;fillColor=#f8cecc;strokeColor=light-dark(#050505, #9577a3);fontFamily=Comic Sans MS;" parent="1" vertex="1">
          <mxGeometry x="891.25" y="170" width="135" height="80" as="geometry" />
        </mxCell>
        <mxCell id="qNN8WSwoeSZNNqFQAVAW-14" value="App Server" style="shape=ext;double=1;rounded=0;whiteSpace=wrap;html=1;fillColor=#d5e8d4;strokeColor=#000000;fontFamily=Comic Sans MS;" parent="1" vertex="1">
          <mxGeometry x="871.25" y="326.67" width="135" height="80" as="geometry" />
        </mxCell>
        <mxCell id="qNN8WSwoeSZNNqFQAVAW-15" value="App Server" style="shape=ext;double=1;rounded=0;whiteSpace=wrap;html=1;fillColor=#d5e8d4;strokeColor=#000000;fontFamily=Comic Sans MS;" parent="1" vertex="1">
          <mxGeometry x="881.25" y="336.67" width="135" height="80" as="geometry" />
        </mxCell>
        <mxCell id="qNN8WSwoeSZNNqFQAVAW-16" value="App Server" style="shape=ext;double=1;rounded=0;whiteSpace=wrap;html=1;fillColor=#d5e8d4;strokeColor=#000000;fontFamily=Comic Sans MS;" parent="1" vertex="1">
          <mxGeometry x="891.25" y="346.67" width="135" height="80" as="geometry" />
        </mxCell>
        <mxCell id="qNN8WSwoeSZNNqFQAVAW-17" value="" style="endArrow=classic;html=1;rounded=0;exitX=0.5;exitY=1;exitDx=0;exitDy=0;entryX=0.5;entryY=0;entryDx=0;entryDy=0;fontFamily=Comic Sans MS;" parent="1" source="qNN8WSwoeSZNNqFQAVAW-12" target="qNN8WSwoeSZNNqFQAVAW-16" edge="1">
          <mxGeometry width="50" height="50" relative="1" as="geometry">
            <mxPoint x="691.25" y="780" as="sourcePoint" />
            <mxPoint x="721.25" y="680" as="targetPoint" />
          </mxGeometry>
        </mxCell>
        <mxCell id="NdVhNwItUmRGyLMRtZnM-1" value="Requests" style="edgeLabel;html=1;align=center;verticalAlign=middle;resizable=0;points=[];fontFamily=Comic Sans MS;" vertex="1" connectable="0" parent="qNN8WSwoeSZNNqFQAVAW-17">
          <mxGeometry x="-0.1583" y="2" relative="1" as="geometry">
            <mxPoint as="offset" />
          </mxGeometry>
        </mxCell>
        <mxCell id="qNN8WSwoeSZNNqFQAVAW-27" value="Database PostgreSQL&lt;div&gt;Cluster&lt;/div&gt;" style="shape=datastore;whiteSpace=wrap;html=1;fillColor=#b1ddf0;strokeColor=#10739e;fontFamily=Comic Sans MS;" parent="1" vertex="1">
          <mxGeometry x="785" y="1130" width="120" height="120" as="geometry" />
        </mxCell>
        <mxCell id="qNN8WSwoeSZNNqFQAVAW-28" value="Object Storage&lt;div&gt;(S3) Cluster&lt;/div&gt;" style="shape=datastore;whiteSpace=wrap;html=1;fillColor=#b1ddf0;strokeColor=#10739e;fontFamily=Comic Sans MS;" parent="1" vertex="1">
          <mxGeometry x="1105" y="1130" width="120" height="120" as="geometry" />
        </mxCell>
        <mxCell id="qNN8WSwoeSZNNqFQAVAW-29" value="User Dashboard" style="shape=ext;double=1;rounded=1;whiteSpace=wrap;html=1;fillColor=#e1d5e7;strokeColor=light-dark(#050505, #9577a3);fontFamily=Comic Sans MS;" parent="1" vertex="1">
          <mxGeometry x="265" y="1570" width="120" height="80" as="geometry" />
        </mxCell>
        <mxCell id="qNN8WSwoeSZNNqFQAVAW-49" value="Redis Cache" style="shape=cylinder3;whiteSpace=wrap;html=1;boundedLbl=1;backgroundOutline=1;size=15;fillColor=#b1ddf0;strokeColor=#10739e;fontFamily=Comic Sans MS;" parent="1" vertex="1">
          <mxGeometry x="945" y="1130" width="120" height="120" as="geometry" />
        </mxCell>
        <mxCell id="cPcOVqFDoY0YMTqp9Qiq-2" value="CDN" style="shape=ext;double=1;rounded=0;whiteSpace=wrap;html=1;fillColor=#ffe6cc;strokeColor=light-dark(#050505, #9577a3);fontFamily=Comic Sans MS;" vertex="1" parent="1">
          <mxGeometry x="545" y="1570" width="87.5" height="80" as="geometry" />
        </mxCell>
        <mxCell id="cPcOVqFDoY0YMTqp9Qiq-14" value="Load Balancers" style="shape=ext;double=1;rounded=0;whiteSpace=wrap;html=1;fillColor=#f8cecc;strokeColor=light-dark(#050505, #9577a3);fontFamily=Comic Sans MS;" vertex="1" parent="1">
          <mxGeometry x="267.5" y="1370" width="117.5" height="80" as="geometry" />
        </mxCell>
        <mxCell id="cPcOVqFDoY0YMTqp9Qiq-15" value="User Management" style="swimlane;fontStyle=0;childLayout=stackLayout;horizontal=1;startSize=30;horizontalStack=0;resizeParent=1;resizeParentMax=0;resizeLast=0;collapsible=1;marginBottom=0;whiteSpace=wrap;html=1;fillColor=#dae8fc;strokeColor=#000000;fontFamily=Comic Sans MS;fontColor=#000000;" vertex="1" parent="1">
          <mxGeometry x="1213.75" y="331.67" width="210" height="90" as="geometry" />
        </mxCell>
        <mxCell id="cPcOVqFDoY0YMTqp9Qiq-16" value="Authentication OAUTH2" style="text;strokeColor=#000000;fillColor=#dae8fc;align=left;verticalAlign=middle;spacingLeft=4;spacingRight=4;overflow=hidden;points=[[0,0.5],[1,0.5]];portConstraint=eastwest;rotatable=0;whiteSpace=wrap;html=1;fontFamily=Comic Sans MS;fontColor=#000000;" vertex="1" parent="cPcOVqFDoY0YMTqp9Qiq-15">
          <mxGeometry y="30" width="210" height="30" as="geometry" />
        </mxCell>
        <mxCell id="cPcOVqFDoY0YMTqp9Qiq-17" value="Role Management" style="text;strokeColor=#000000;fillColor=#dae8fc;align=left;verticalAlign=middle;spacingLeft=4;spacingRight=4;overflow=hidden;points=[[0,0.5],[1,0.5]];portConstraint=eastwest;rotatable=0;whiteSpace=wrap;html=1;fontFamily=Comic Sans MS;fontColor=#000000;" vertex="1" parent="cPcOVqFDoY0YMTqp9Qiq-15">
          <mxGeometry y="60" width="210" height="30" as="geometry" />
        </mxCell>
        <mxCell id="cPcOVqFDoY0YMTqp9Qiq-19" value="" style="endArrow=classic;html=1;rounded=0;exitX=0;exitY=0.5;exitDx=0;exitDy=0;entryX=1;entryY=0.5;entryDx=0;entryDy=0;fontFamily=Comic Sans MS;" edge="1" parent="1" source="qNN8WSwoeSZNNqFQAVAW-3" target="qNN8WSwoeSZNNqFQAVAW-5">
          <mxGeometry width="50" height="50" relative="1" as="geometry">
            <mxPoint x="1031.25" y="780" as="sourcePoint" />
            <mxPoint x="1081.25" y="730" as="targetPoint" />
          </mxGeometry>
        </mxCell>
        <mxCell id="Yw4bijcPnnjhm8XfOBer-1" value="Raw Data" style="edgeLabel;html=1;align=center;verticalAlign=middle;resizable=0;points=[];fontFamily=Comic Sans MS;" vertex="1" connectable="0" parent="cPcOVqFDoY0YMTqp9Qiq-19">
          <mxGeometry x="-0.0969" y="-2" relative="1" as="geometry">
            <mxPoint x="-1" y="2" as="offset" />
          </mxGeometry>
        </mxCell>
        <mxCell id="cPcOVqFDoY0YMTqp9Qiq-20" value="" style="endArrow=classic;html=1;rounded=0;exitX=0;exitY=0.5;exitDx=0;exitDy=0;entryX=1;entryY=0.5;entryDx=0;entryDy=0;fontFamily=Comic Sans MS;" edge="1" parent="1" source="qNN8WSwoeSZNNqFQAVAW-5" target="qNN8WSwoeSZNNqFQAVAW-12">
          <mxGeometry width="50" height="50" relative="1" as="geometry">
            <mxPoint x="991.25" y="780" as="sourcePoint" />
            <mxPoint x="1041.25" y="730" as="targetPoint" />
          </mxGeometry>
        </mxCell>
        <mxCell id="yc8CyYkb-GV13tXAblhJ-2" value="Distribute Traffic" style="edgeLabel;html=1;align=center;verticalAlign=middle;resizable=0;points=[];fontFamily=Comic Sans MS;" vertex="1" connectable="0" parent="cPcOVqFDoY0YMTqp9Qiq-20">
          <mxGeometry x="-0.1375" y="2" relative="1" as="geometry">
            <mxPoint x="3" y="-2" as="offset" />
          </mxGeometry>
        </mxCell>
        <mxCell id="cPcOVqFDoY0YMTqp9Qiq-26" value="&lt;span style=&quot;color: rgb(51, 51, 51); font-size: 16px; text-align: start; background-color: rgb(255, 255, 255);&quot;&gt;RabbitMQ&lt;br&gt;Message Broker&lt;/span&gt;" style="ellipse;shape=cloud;whiteSpace=wrap;html=1;fontFamily=Comic Sans MS;" vertex="1" parent="1">
          <mxGeometry x="1007.5" y="550" width="195" height="130" as="geometry" />
        </mxCell>
        <mxCell id="cPcOVqFDoY0YMTqp9Qiq-49" value="Horizontal Scaling of Workers" style="swimlane;horizontal=0;whiteSpace=wrap;html=1;fontFamily=Comic Sans MS;startSize=40;" vertex="1" parent="1">
          <mxGeometry x="665" y="730" width="960" height="160" as="geometry" />
        </mxCell>
        <mxCell id="qNN8WSwoeSZNNqFQAVAW-39" value="Predictive Analytics Service" style="rounded=0;whiteSpace=wrap;html=1;fillColor=#dae8fc;strokeColor=#6c8ebf;fontFamily=Comic Sans MS;" parent="cPcOVqFDoY0YMTqp9Qiq-49" vertex="1">
          <mxGeometry x="80" y="35" width="160" height="85" as="geometry" />
        </mxCell>
        <mxCell id="qNN8WSwoeSZNNqFQAVAW-44" value="Notification Service" style="rounded=0;whiteSpace=wrap;html=1;fillColor=#dae8fc;strokeColor=#6c8ebf;fontFamily=Comic Sans MS;" parent="cPcOVqFDoY0YMTqp9Qiq-49" vertex="1">
          <mxGeometry x="320" y="35" width="160" height="85" as="geometry" />
        </mxCell>
        <mxCell id="6kwriRtmMuZ2P15k0v1l-1" value="Report Generation&amp;nbsp;&lt;div&gt;Service&lt;/div&gt;" style="rounded=0;whiteSpace=wrap;html=1;fillColor=#dae8fc;strokeColor=#6c8ebf;fontFamily=Comic Sans MS;" vertex="1" parent="cPcOVqFDoY0YMTqp9Qiq-49">
          <mxGeometry x="560" y="35" width="160" height="85" as="geometry" />
        </mxCell>
        <mxCell id="xDx8_VDq5MuYbjgj8BAs-1" value="Monitoring Service" style="rounded=0;whiteSpace=wrap;html=1;fillColor=#dae8fc;strokeColor=#6c8ebf;fontFamily=Comic Sans MS;" vertex="1" parent="cPcOVqFDoY0YMTqp9Qiq-49">
          <mxGeometry x="800" y="37.5" width="120" height="85" as="geometry" />
        </mxCell>
        <mxCell id="CEZV1fgWufiOdPWFgZeR-2" value="" style="curved=1;endArrow=classic;html=1;rounded=0;exitX=1;exitY=0.5;exitDx=0;exitDy=0;entryX=0;entryY=0.5;entryDx=0;entryDy=0;fontFamily=Comic Sans MS;" edge="1" parent="1" source="qNN8WSwoeSZNNqFQAVAW-16" target="cPcOVqFDoY0YMTqp9Qiq-16">
          <mxGeometry width="50" height="50" relative="1" as="geometry">
            <mxPoint x="1191.25" y="426.67" as="sourcePoint" />
            <mxPoint x="1241.25" y="376.67" as="targetPoint" />
            <Array as="points">
              <mxPoint x="1161.25" y="346.67" />
            </Array>
          </mxGeometry>
        </mxCell>
        <mxCell id="8_jfqfEzI4wNXuQa5Bti-1" value="Authenticate User" style="edgeLabel;html=1;align=center;verticalAlign=middle;resizable=0;points=[];fontFamily=Comic Sans MS;" vertex="1" connectable="0" parent="CEZV1fgWufiOdPWFgZeR-2">
          <mxGeometry x="0.0219" y="-4" relative="1" as="geometry">
            <mxPoint y="-1" as="offset" />
          </mxGeometry>
        </mxCell>
        <mxCell id="CEZV1fgWufiOdPWFgZeR-3" value="" style="curved=1;endArrow=classic;html=1;rounded=0;entryX=1.008;entryY=0.631;entryDx=0;entryDy=0;entryPerimeter=0;exitX=0;exitY=0.75;exitDx=0;exitDy=0;fontFamily=Comic Sans MS;" edge="1" parent="1" source="cPcOVqFDoY0YMTqp9Qiq-15" target="qNN8WSwoeSZNNqFQAVAW-16">
          <mxGeometry width="50" height="50" relative="1" as="geometry">
            <mxPoint x="1071.25" y="476.6700000000001" as="sourcePoint" />
            <mxPoint x="1151.25" y="446.6700000000001" as="targetPoint" />
            <Array as="points">
              <mxPoint x="1101.25" y="446.6700000000001" />
            </Array>
          </mxGeometry>
        </mxCell>
        <mxCell id="z_WYJQl0pMnrJU7_aItO-1" value="Role-Based Access" style="edgeLabel;html=1;align=center;verticalAlign=middle;resizable=0;points=[];fontFamily=Comic Sans MS;" vertex="1" connectable="0" parent="CEZV1fgWufiOdPWFgZeR-3">
          <mxGeometry x="-0.0064" y="-15" relative="1" as="geometry">
            <mxPoint x="1" as="offset" />
          </mxGeometry>
        </mxCell>
        <mxCell id="DKMEA2u1gpTaL-MMy4T4-1" value="API Gateway" style="strokeWidth=2;html=1;shape=mxgraph.flowchart.decision;whiteSpace=wrap;fillColor=#d5e8d4;strokeColor=#000000;fontFamily=Comic Sans MS;" vertex="1" parent="1">
          <mxGeometry x="591.25" y="325.01" width="120" height="123.33" as="geometry" />
        </mxCell>
        <mxCell id="sGbW3MwGAlB5y6Q_qJr2-1" value="" style="endArrow=classic;html=1;rounded=0;entryX=1;entryY=0.5;entryDx=0;entryDy=0;entryPerimeter=0;exitX=0;exitY=0.5;exitDx=0;exitDy=0;fontFamily=Comic Sans MS;" edge="1" parent="1" source="qNN8WSwoeSZNNqFQAVAW-16" target="DKMEA2u1gpTaL-MMy4T4-1">
          <mxGeometry width="50" height="50" relative="1" as="geometry">
            <mxPoint x="751.25" y="360" as="sourcePoint" />
            <mxPoint x="801.25" y="310" as="targetPoint" />
          </mxGeometry>
        </mxCell>
        <mxCell id="qqKM845GMiQop1oDLLh_-1" value="API Requests" style="edgeLabel;html=1;align=center;verticalAlign=middle;resizable=0;points=[];fontFamily=Comic Sans MS;" vertex="1" connectable="0" parent="sGbW3MwGAlB5y6Q_qJr2-1">
          <mxGeometry x="0.1719" y="2" relative="1" as="geometry">
            <mxPoint as="offset" />
          </mxGeometry>
        </mxCell>
        <mxCell id="G2hu7sxv_OeYMRJVCIPz-1" value="Private API" style="rounded=1;whiteSpace=wrap;html=1;fontFamily=Comic Sans MS;" vertex="1" parent="1">
          <mxGeometry x="531.25" y="260" width="90" height="30" as="geometry" />
        </mxCell>
        <mxCell id="G2hu7sxv_OeYMRJVCIPz-2" value="Public API" style="rounded=1;whiteSpace=wrap;html=1;fontFamily=Comic Sans MS;" vertex="1" parent="1">
          <mxGeometry x="681.25" y="260" width="90" height="30" as="geometry" />
        </mxCell>
        <mxCell id="6nskR6p6F3CiXO_FvpCj-2" value="" style="curved=1;endArrow=classic;html=1;rounded=0;exitX=0.5;exitY=1;exitDx=0;exitDy=0;entryX=0.817;entryY=0.294;entryDx=0;entryDy=0;entryPerimeter=0;fontFamily=Comic Sans MS;" edge="1" parent="1" source="G2hu7sxv_OeYMRJVCIPz-2" target="DKMEA2u1gpTaL-MMy4T4-1">
          <mxGeometry width="50" height="50" relative="1" as="geometry">
            <mxPoint x="841.25" y="410" as="sourcePoint" />
            <mxPoint x="891.25" y="360" as="targetPoint" />
            <Array as="points">
              <mxPoint x="751.25" y="310" />
              <mxPoint x="741.25" y="350" />
            </Array>
          </mxGeometry>
        </mxCell>
        <mxCell id="IRRzSq8Jv-e-gdpHs13W-1" value="Access Data" style="edgeLabel;html=1;align=center;verticalAlign=middle;resizable=0;points=[];fontFamily=Comic Sans MS;" vertex="1" connectable="0" parent="6nskR6p6F3CiXO_FvpCj-2">
          <mxGeometry x="-0.0325" y="-5" relative="1" as="geometry">
            <mxPoint as="offset" />
          </mxGeometry>
        </mxCell>
        <mxCell id="6nskR6p6F3CiXO_FvpCj-5" value="" style="curved=1;endArrow=classic;html=1;rounded=0;exitX=0.5;exitY=1;exitDx=0;exitDy=0;entryX=0.248;entryY=0.242;entryDx=0;entryDy=0;entryPerimeter=0;fontFamily=Comic Sans MS;" edge="1" parent="1" source="G2hu7sxv_OeYMRJVCIPz-1" target="DKMEA2u1gpTaL-MMy4T4-1">
          <mxGeometry width="50" height="50" relative="1" as="geometry">
            <mxPoint x="841.25" y="410" as="sourcePoint" />
            <mxPoint x="891.25" y="360" as="targetPoint" />
            <Array as="points">
              <mxPoint x="571.25" y="330" />
            </Array>
          </mxGeometry>
        </mxCell>
        <mxCell id="IRRzSq8Jv-e-gdpHs13W-2" value="Specialized Data" style="edgeLabel;html=1;align=center;verticalAlign=middle;resizable=0;points=[];fontFamily=Comic Sans MS;" vertex="1" connectable="0" parent="6nskR6p6F3CiXO_FvpCj-5">
          <mxGeometry x="0.0524" y="9" relative="1" as="geometry">
            <mxPoint as="offset" />
          </mxGeometry>
        </mxCell>
        <mxCell id="_6GPDkqd9VZTJzSeS4Ry-2" value="Read API" style="shape=parallelogram;perimeter=parallelogramPerimeter;whiteSpace=wrap;html=1;fixedSize=1;fillColor=#d5e8d4;strokeColor=#000000;fontFamily=Comic Sans MS;" vertex="1" parent="1">
          <mxGeometry x="285" y="1190" width="100" height="60" as="geometry" />
        </mxCell>
        <mxCell id="_6GPDkqd9VZTJzSeS4Ry-3" value="Write API" style="shape=parallelogram;perimeter=parallelogramPerimeter;whiteSpace=wrap;html=1;fixedSize=1;fillColor=#d5e8d4;strokeColor=#000000;fontFamily=Comic Sans MS;" vertex="1" parent="1">
          <mxGeometry x="1355" y="500" width="100" height="60" as="geometry" />
        </mxCell>
        <mxCell id="_6GPDkqd9VZTJzSeS4Ry-4" value="" style="curved=1;endArrow=classic;html=1;rounded=0;exitX=0.283;exitY=0.787;exitDx=0;exitDy=0;exitPerimeter=0;entryX=0.62;entryY=0.034;entryDx=0;entryDy=0;entryPerimeter=0;fontFamily=Comic Sans MS;" edge="1" parent="1" source="DKMEA2u1gpTaL-MMy4T4-1" target="_6GPDkqd9VZTJzSeS4Ry-2">
          <mxGeometry width="50" height="50" relative="1" as="geometry">
            <mxPoint x="841.25" y="410" as="sourcePoint" />
            <mxPoint x="891.25" y="360" as="targetPoint" />
            <Array as="points">
              <mxPoint x="175" y="460" />
            </Array>
          </mxGeometry>
        </mxCell>
        <mxCell id="655Wv_DJx8fEiMLKM3fb-2" value="Read Operations" style="edgeLabel;html=1;align=center;verticalAlign=middle;resizable=0;points=[];fontFamily=Comic Sans MS;" vertex="1" connectable="0" parent="_6GPDkqd9VZTJzSeS4Ry-4">
          <mxGeometry x="0.4554" y="4" relative="1" as="geometry">
            <mxPoint y="1" as="offset" />
          </mxGeometry>
        </mxCell>
        <mxCell id="_6GPDkqd9VZTJzSeS4Ry-5" value="" style="curved=1;endArrow=classic;html=1;rounded=0;entryX=0.5;entryY=0;entryDx=0;entryDy=0;exitX=0.754;exitY=0.726;exitDx=0;exitDy=0;exitPerimeter=0;fontFamily=Comic Sans MS;" edge="1" parent="1" source="DKMEA2u1gpTaL-MMy4T4-1" target="_6GPDkqd9VZTJzSeS4Ry-3">
          <mxGeometry width="50" height="50" relative="1" as="geometry">
            <mxPoint x="681.25" y="420" as="sourcePoint" />
            <mxPoint x="891.25" y="360" as="targetPoint" />
            <Array as="points">
              <mxPoint x="911.25" y="480" />
              <mxPoint x="1241.25" y="450" />
            </Array>
          </mxGeometry>
        </mxCell>
        <mxCell id="655Wv_DJx8fEiMLKM3fb-1" value="Write Operations" style="edgeLabel;html=1;align=center;verticalAlign=middle;resizable=0;points=[];fontFamily=Comic Sans MS;" vertex="1" connectable="0" parent="_6GPDkqd9VZTJzSeS4Ry-5">
          <mxGeometry x="-0.0288" y="1" relative="1" as="geometry">
            <mxPoint x="2" y="-13" as="offset" />
          </mxGeometry>
        </mxCell>
        <mxCell id="KbW7tBuYtUWBjRFiMkkC-1" value="" style="endArrow=classic;html=1;rounded=0;entryX=0;entryY=0.5;entryDx=0;entryDy=0;exitX=1;exitY=0.5;exitDx=0;exitDy=0;fontFamily=Comic Sans MS;" edge="1" parent="1" source="qNN8WSwoeSZNNqFQAVAW-29" target="cPcOVqFDoY0YMTqp9Qiq-2">
          <mxGeometry width="50" height="50" relative="1" as="geometry">
            <mxPoint x="561.25" y="1630" as="sourcePoint" />
            <mxPoint x="111.25" y="1550" as="targetPoint" />
          </mxGeometry>
        </mxCell>
        <mxCell id="KbW7tBuYtUWBjRFiMkkC-2" value="User Access" style="edgeLabel;html=1;align=center;verticalAlign=middle;resizable=0;points=[];fontFamily=Comic Sans MS;" vertex="1" connectable="0" parent="KbW7tBuYtUWBjRFiMkkC-1">
          <mxGeometry x="0.0848" y="-3" relative="1" as="geometry">
            <mxPoint as="offset" />
          </mxGeometry>
        </mxCell>
        <mxCell id="G3ReCDKp_hAOx1x4uiE9-1" value="" style="curved=1;endArrow=classic;html=1;rounded=0;exitX=0;exitY=0.5;exitDx=0;exitDy=0;entryX=0.875;entryY=0.5;entryDx=0;entryDy=0;entryPerimeter=0;fontFamily=Comic Sans MS;" edge="1" parent="1" source="_6GPDkqd9VZTJzSeS4Ry-3" target="cPcOVqFDoY0YMTqp9Qiq-26">
          <mxGeometry width="50" height="50" relative="1" as="geometry">
            <mxPoint x="1171.25" y="670" as="sourcePoint" />
            <mxPoint x="1295" y="650" as="targetPoint" />
            <Array as="points">
              <mxPoint x="1285" y="590" />
            </Array>
          </mxGeometry>
        </mxCell>
        <mxCell id="IisjZbFnTHiCuA-0_lpq-1" value="" style="verticalLabelPosition=bottom;verticalAlign=top;html=1;shape=mxgraph.basic.rect;fillColor2=none;strokeWidth=1;size=20;indent=5;fillColor=none;fontFamily=Comic Sans MS;" vertex="1" parent="1">
          <mxGeometry x="345" y="730" width="240" height="280" as="geometry" />
        </mxCell>
        <mxCell id="DBw0bLSpzc3265k-nplg-1" value="AI Model Inference&lt;br&gt;Service" style="rounded=1;whiteSpace=wrap;html=1;fontFamily=Comic Sans MS;" vertex="1" parent="1">
          <mxGeometry x="385" y="770" width="160" height="80" as="geometry" />
        </mxCell>
        <mxCell id="DBw0bLSpzc3265k-nplg-2" value="Contamination Detection&lt;div&gt;Service&lt;/div&gt;" style="rounded=1;whiteSpace=wrap;html=1;fontFamily=Comic Sans MS;" vertex="1" parent="1">
          <mxGeometry x="385" y="890" width="160" height="80" as="geometry" />
        </mxCell>
        <mxCell id="fX9-5sSBdLIvi0bUt4OD-1" value="" style="curved=1;endArrow=classic;html=1;rounded=0;exitX=0.16;exitY=0.55;exitDx=0;exitDy=0;exitPerimeter=0;entryX=0.536;entryY=0.001;entryDx=0;entryDy=0;entryPerimeter=0;fontFamily=Comic Sans MS;" edge="1" parent="1" source="cPcOVqFDoY0YMTqp9Qiq-26" target="IisjZbFnTHiCuA-0_lpq-1">
          <mxGeometry width="50" height="50" relative="1" as="geometry">
            <mxPoint x="1055" y="890" as="sourcePoint" />
            <mxPoint x="1105" y="840" as="targetPoint" />
            <Array as="points">
              <mxPoint x="575" y="550" />
            </Array>
          </mxGeometry>
        </mxCell>
        <mxCell id="fX9-5sSBdLIvi0bUt4OD-2" value="" style="endArrow=classic;html=1;rounded=0;exitX=0.5;exitY=1;exitDx=0;exitDy=0;entryX=0.5;entryY=0;entryDx=0;entryDy=0;fontFamily=Comic Sans MS;" edge="1" parent="1" source="DBw0bLSpzc3265k-nplg-1" target="DBw0bLSpzc3265k-nplg-2">
          <mxGeometry width="50" height="50" relative="1" as="geometry">
            <mxPoint x="1055" y="890" as="sourcePoint" />
            <mxPoint x="1105" y="840" as="targetPoint" />
          </mxGeometry>
        </mxCell>
        <mxCell id="xDx8_VDq5MuYbjgj8BAs-2" value="" style="curved=1;endArrow=classic;html=1;rounded=0;exitX=0.55;exitY=0.95;exitDx=0;exitDy=0;exitPerimeter=0;entryX=0.5;entryY=0;entryDx=0;entryDy=0;fontFamily=Comic Sans MS;" edge="1" parent="1" source="cPcOVqFDoY0YMTqp9Qiq-26" target="cPcOVqFDoY0YMTqp9Qiq-49">
          <mxGeometry width="50" height="50" relative="1" as="geometry">
            <mxPoint x="1235" y="550" as="sourcePoint" />
            <mxPoint x="1285" y="500" as="targetPoint" />
            <Array as="points">
              <mxPoint x="1155" y="700" />
            </Array>
          </mxGeometry>
        </mxCell>
        <mxCell id="pY_4zxJHPJ0k8dUdlKpk-1" value="" style="curved=1;endArrow=classic;html=1;rounded=0;exitX=0.5;exitY=0;exitDx=0;exitDy=0;entryX=1;entryY=0.5;entryDx=0;entryDy=0;fontFamily=Comic Sans MS;" edge="1" parent="1" source="cPcOVqFDoY0YMTqp9Qiq-2" target="cPcOVqFDoY0YMTqp9Qiq-14">
          <mxGeometry width="50" height="50" relative="1" as="geometry">
            <mxPoint x="925" y="1410" as="sourcePoint" />
            <mxPoint x="975" y="1360" as="targetPoint" />
            <Array as="points">
              <mxPoint x="605" y="1420" />
            </Array>
          </mxGeometry>
        </mxCell>
        <mxCell id="V2Qqydepd5U-d6oegSgD-1" value="" style="curved=1;endArrow=classic;html=1;rounded=0;exitX=0.5;exitY=0;exitDx=0;exitDy=0;entryX=0.5;entryY=1;entryDx=0;entryDy=0;fontFamily=Comic Sans MS;" edge="1" parent="1" source="qNN8WSwoeSZNNqFQAVAW-29" target="cPcOVqFDoY0YMTqp9Qiq-14">
          <mxGeometry width="50" height="50" relative="1" as="geometry">
            <mxPoint x="925" y="1410" as="sourcePoint" />
            <mxPoint x="975" y="1360" as="targetPoint" />
            <Array as="points">
              <mxPoint x="275" y="1520" />
            </Array>
          </mxGeometry>
        </mxCell>
        <mxCell id="V2Qqydepd5U-d6oegSgD-2" value="Request" style="edgeLabel;html=1;align=center;verticalAlign=middle;resizable=0;points=[];fontFamily=Comic Sans MS;" vertex="1" connectable="0" parent="V2Qqydepd5U-d6oegSgD-1">
          <mxGeometry x="0.1654" y="-14" relative="1" as="geometry">
            <mxPoint as="offset" />
          </mxGeometry>
        </mxCell>
        <mxCell id="V2Qqydepd5U-d6oegSgD-3" value="" style="curved=1;endArrow=classic;html=1;rounded=0;exitX=0.75;exitY=1;exitDx=0;exitDy=0;entryX=0.75;entryY=0;entryDx=0;entryDy=0;fontFamily=Comic Sans MS;" edge="1" parent="1" source="cPcOVqFDoY0YMTqp9Qiq-14" target="qNN8WSwoeSZNNqFQAVAW-29">
          <mxGeometry width="50" height="50" relative="1" as="geometry">
            <mxPoint x="925" y="1410" as="sourcePoint" />
            <mxPoint x="975" y="1360" as="targetPoint" />
            <Array as="points">
              <mxPoint x="405" y="1490" />
            </Array>
          </mxGeometry>
        </mxCell>
        <mxCell id="V2Qqydepd5U-d6oegSgD-4" value="Deliver Data" style="edgeLabel;html=1;align=center;verticalAlign=middle;resizable=0;points=[];fontFamily=Comic Sans MS;" vertex="1" connectable="0" parent="V2Qqydepd5U-d6oegSgD-3">
          <mxGeometry x="0.1223" y="-10" relative="1" as="geometry">
            <mxPoint as="offset" />
          </mxGeometry>
        </mxCell>
        <mxCell id="SRaeVmXMBcYB4Bib_vhd-1" value="" style="curved=1;endArrow=classic;html=1;rounded=0;exitX=0.25;exitY=0;exitDx=0;exitDy=0;entryX=0.25;entryY=1;entryDx=0;entryDy=0;fontFamily=Comic Sans MS;" edge="1" parent="1" source="cPcOVqFDoY0YMTqp9Qiq-14" target="_6GPDkqd9VZTJzSeS4Ry-2">
          <mxGeometry width="50" height="50" relative="1" as="geometry">
            <mxPoint x="385" y="1350" as="sourcePoint" />
            <mxPoint x="775" y="1450" as="targetPoint" />
            <Array as="points">
              <mxPoint x="275" y="1290" />
            </Array>
          </mxGeometry>
        </mxCell>
        <mxCell id="SRaeVmXMBcYB4Bib_vhd-2" value="Route" style="edgeLabel;html=1;align=center;verticalAlign=middle;resizable=0;points=[];fontFamily=Comic Sans MS;" vertex="1" connectable="0" parent="SRaeVmXMBcYB4Bib_vhd-1">
          <mxGeometry x="-0.0136" y="-6" relative="1" as="geometry">
            <mxPoint y="-1" as="offset" />
          </mxGeometry>
        </mxCell>
        <mxCell id="SRaeVmXMBcYB4Bib_vhd-3" value="" style="curved=1;endArrow=classic;html=1;rounded=0;exitX=0.5;exitY=1;exitDx=0;exitDy=0;entryX=0.5;entryY=0;entryDx=0;entryDy=0;fontFamily=Comic Sans MS;" edge="1" parent="1" source="_6GPDkqd9VZTJzSeS4Ry-2" target="cPcOVqFDoY0YMTqp9Qiq-14">
          <mxGeometry width="50" height="50" relative="1" as="geometry">
            <mxPoint x="725" y="1500" as="sourcePoint" />
            <mxPoint x="775" y="1450" as="targetPoint" />
            <Array as="points">
              <mxPoint x="385" y="1320" />
            </Array>
          </mxGeometry>
        </mxCell>
        <mxCell id="SRaeVmXMBcYB4Bib_vhd-4" value="Response" style="edgeLabel;html=1;align=center;verticalAlign=middle;resizable=0;points=[];fontFamily=Comic Sans MS;" vertex="1" connectable="0" parent="SRaeVmXMBcYB4Bib_vhd-3">
          <mxGeometry x="-0.4035" y="-8" relative="1" as="geometry">
            <mxPoint as="offset" />
          </mxGeometry>
        </mxCell>
        <mxCell id="Ui-OIOsuvaOLmo_Si_IH-1" value="" style="curved=1;endArrow=classic;html=1;rounded=0;exitX=1;exitY=0.5;exitDx=0;exitDy=0;entryX=0.5;entryY=0;entryDx=0;entryDy=0;fontFamily=Comic Sans MS;" edge="1" parent="1" source="_6GPDkqd9VZTJzSeS4Ry-2" target="qNN8WSwoeSZNNqFQAVAW-27">
          <mxGeometry width="50" height="50" relative="1" as="geometry">
            <mxPoint x="725" y="1160" as="sourcePoint" />
            <mxPoint x="825" y="1040" as="targetPoint" />
            <Array as="points">
              <mxPoint x="765" y="970" />
            </Array>
          </mxGeometry>
        </mxCell>
        <mxCell id="VLNCBtQf67U5OlbMGLZL-1" value="Query Structured Data" style="edgeLabel;html=1;align=center;verticalAlign=middle;resizable=0;points=[];fontFamily=Comic Sans MS;" vertex="1" connectable="0" parent="Ui-OIOsuvaOLmo_Si_IH-1">
          <mxGeometry x="-0.3123" y="-20" relative="1" as="geometry">
            <mxPoint x="1" as="offset" />
          </mxGeometry>
        </mxCell>
        <mxCell id="xcu2pK8cOqfIWZCj4Js6-1" value="" style="curved=1;endArrow=classic;html=1;rounded=0;exitX=1;exitY=0.5;exitDx=0;exitDy=0;entryX=0.5;entryY=1;entryDx=0;entryDy=0;entryPerimeter=0;fontFamily=Comic Sans MS;" edge="1" parent="1" source="_6GPDkqd9VZTJzSeS4Ry-2" target="qNN8WSwoeSZNNqFQAVAW-49">
          <mxGeometry width="50" height="50" relative="1" as="geometry">
            <mxPoint x="725" y="1160" as="sourcePoint" />
            <mxPoint x="775" y="1110" as="targetPoint" />
            <Array as="points">
              <mxPoint x="375" y="1220" />
              <mxPoint x="605" y="1320" />
              <mxPoint x="805" y="1380" />
            </Array>
          </mxGeometry>
        </mxCell>
        <mxCell id="xcu2pK8cOqfIWZCj4Js6-2" value="Fetch Frequently Accessed Data" style="edgeLabel;html=1;align=center;verticalAlign=middle;resizable=0;points=[];fontFamily=Comic Sans MS;" vertex="1" connectable="0" parent="xcu2pK8cOqfIWZCj4Js6-1">
          <mxGeometry x="-0.1289" y="8" relative="1" as="geometry">
            <mxPoint x="1" as="offset" />
          </mxGeometry>
        </mxCell>
        <mxCell id="xcu2pK8cOqfIWZCj4Js6-3" value="" style="curved=1;endArrow=classic;html=1;rounded=0;exitX=1;exitY=0.5;exitDx=0;exitDy=0;entryX=0.5;entryY=1;entryDx=0;entryDy=0;fontFamily=Comic Sans MS;" edge="1" parent="1" source="_6GPDkqd9VZTJzSeS4Ry-2" target="qNN8WSwoeSZNNqFQAVAW-28">
          <mxGeometry width="50" height="50" relative="1" as="geometry">
            <mxPoint x="725" y="1160" as="sourcePoint" />
            <mxPoint x="775" y="1110" as="targetPoint" />
            <Array as="points">
              <mxPoint x="635" y="1390" />
              <mxPoint x="905" y="1500" />
            </Array>
          </mxGeometry>
        </mxCell>
        <mxCell id="xcu2pK8cOqfIWZCj4Js6-4" value="Historical Data" style="edgeLabel;html=1;align=center;verticalAlign=middle;resizable=0;points=[];fontFamily=Comic Sans MS;" vertex="1" connectable="0" parent="xcu2pK8cOqfIWZCj4Js6-3">
          <mxGeometry x="0.3653" y="38" relative="1" as="geometry">
            <mxPoint y="-1" as="offset" />
          </mxGeometry>
        </mxCell>
        <mxCell id="jDfSyHISZUCummlLE9h2-2" value="" style="curved=1;endArrow=classic;html=1;rounded=0;exitX=1;exitY=0.5;exitDx=0;exitDy=0;entryX=0.5;entryY=0;entryDx=0;entryDy=0;entryPerimeter=0;fontFamily=Comic Sans MS;" edge="1" parent="1" source="DBw0bLSpzc3265k-nplg-2" target="qNN8WSwoeSZNNqFQAVAW-49">
          <mxGeometry width="50" height="50" relative="1" as="geometry">
            <mxPoint x="855" y="1000" as="sourcePoint" />
            <mxPoint x="905" y="950" as="targetPoint" />
            <Array as="points">
              <mxPoint x="735" y="930" />
            </Array>
          </mxGeometry>
        </mxCell>
        <mxCell id="jDfSyHISZUCummlLE9h2-3" value="Fetch" style="edgeLabel;html=1;align=center;verticalAlign=middle;resizable=0;points=[];fontFamily=Comic Sans MS;" vertex="1" connectable="0" parent="jDfSyHISZUCummlLE9h2-2">
          <mxGeometry x="-0.3473" y="-36" relative="1" as="geometry">
            <mxPoint as="offset" />
          </mxGeometry>
        </mxCell>
        <mxCell id="jDfSyHISZUCummlLE9h2-4" value="" style="curved=1;endArrow=classic;html=1;rounded=0;exitX=1;exitY=0.5;exitDx=0;exitDy=0;entryX=0.15;entryY=0.05;entryDx=0;entryDy=0;entryPerimeter=0;fontFamily=Comic Sans MS;" edge="1" parent="1" source="DBw0bLSpzc3265k-nplg-2" target="qNN8WSwoeSZNNqFQAVAW-27">
          <mxGeometry width="50" height="50" relative="1" as="geometry">
            <mxPoint x="555" y="940" as="sourcePoint" />
            <mxPoint x="1015" y="1140" as="targetPoint" />
            <Array as="points">
              <mxPoint x="735" y="1020" />
            </Array>
          </mxGeometry>
        </mxCell>
        <mxCell id="jDfSyHISZUCummlLE9h2-5" value="Write Processed Data" style="edgeLabel;html=1;align=center;verticalAlign=middle;resizable=0;points=[];fontFamily=Comic Sans MS;" vertex="1" connectable="0" parent="jDfSyHISZUCummlLE9h2-4">
          <mxGeometry x="-0.3473" y="-36" relative="1" as="geometry">
            <mxPoint x="44" y="-10" as="offset" />
          </mxGeometry>
        </mxCell>
        <mxCell id="jDfSyHISZUCummlLE9h2-6" value="" style="curved=1;endArrow=classic;html=1;rounded=0;exitX=0.5;exitY=1;exitDx=0;exitDy=0;entryX=0.85;entryY=0.05;entryDx=0;entryDy=0;entryPerimeter=0;fontFamily=Comic Sans MS;" edge="1" parent="1" source="qNN8WSwoeSZNNqFQAVAW-44" target="qNN8WSwoeSZNNqFQAVAW-27">
          <mxGeometry width="50" height="50" relative="1" as="geometry">
            <mxPoint x="855" y="1160" as="sourcePoint" />
            <mxPoint x="905" y="1110" as="targetPoint" />
            <Array as="points">
              <mxPoint x="985" y="1010" />
            </Array>
          </mxGeometry>
        </mxCell>
        <mxCell id="jDfSyHISZUCummlLE9h2-7" value="Fetch User Preferences" style="edgeLabel;html=1;align=center;verticalAlign=middle;resizable=0;points=[];fontFamily=Comic Sans MS;" vertex="1" connectable="0" parent="jDfSyHISZUCummlLE9h2-6">
          <mxGeometry x="-0.002" y="12" relative="1" as="geometry">
            <mxPoint as="offset" />
          </mxGeometry>
        </mxCell>
        <mxCell id="U9DrMTAkgWhvEDi-5vsv-2" value="" style="curved=1;endArrow=classic;html=1;rounded=0;exitX=0.75;exitY=1;exitDx=0;exitDy=0;entryX=0.65;entryY=0.058;entryDx=0;entryDy=0;entryPerimeter=0;fontFamily=Comic Sans MS;" edge="1" parent="1" target="qNN8WSwoeSZNNqFQAVAW-27">
          <mxGeometry width="50" height="50" relative="1" as="geometry">
            <mxPoint x="1006.25" y="849.9999999999998" as="sourcePoint" />
            <mxPoint x="928.21" y="1134.3200000000004" as="targetPoint" />
            <Array as="points">
              <mxPoint x="895" y="950" />
            </Array>
          </mxGeometry>
        </mxCell>
        <mxCell id="U9DrMTAkgWhvEDi-5vsv-3" value="Log Notifications" style="edgeLabel;html=1;align=center;verticalAlign=middle;resizable=0;points=[];fontFamily=Comic Sans MS;" vertex="1" connectable="0" parent="U9DrMTAkgWhvEDi-5vsv-2">
          <mxGeometry x="-0.002" y="12" relative="1" as="geometry">
            <mxPoint x="22" y="8" as="offset" />
          </mxGeometry>
        </mxCell>
        <mxCell id="sZSjyrAfv_M8dWBOiLNt-1" value="" style="curved=1;endArrow=classic;html=1;rounded=0;exitX=0.25;exitY=1;exitDx=0;exitDy=0;entryX=0.283;entryY=0.069;entryDx=0;entryDy=0;entryPerimeter=0;fontFamily=Comic Sans MS;" edge="1" parent="1" source="qNN8WSwoeSZNNqFQAVAW-39" target="qNN8WSwoeSZNNqFQAVAW-27">
          <mxGeometry width="50" height="50" relative="1" as="geometry">
            <mxPoint x="855" y="1160" as="sourcePoint" />
            <mxPoint x="815" y="1130" as="targetPoint" />
            <Array as="points">
              <mxPoint x="775" y="950" />
            </Array>
          </mxGeometry>
        </mxCell>
        <mxCell id="sZSjyrAfv_M8dWBOiLNt-2" value="Read Aggregate Data" style="edgeLabel;html=1;align=center;verticalAlign=middle;resizable=0;points=[];fontFamily=Comic Sans MS;" vertex="1" connectable="0" parent="sZSjyrAfv_M8dWBOiLNt-1">
          <mxGeometry x="-0.4948" y="4" relative="1" as="geometry">
            <mxPoint y="-1" as="offset" />
          </mxGeometry>
        </mxCell>
        <mxCell id="sZSjyrAfv_M8dWBOiLNt-3" value="" style="curved=1;endArrow=classic;html=1;rounded=0;fontFamily=Comic Sans MS;" edge="1" parent="1" source="qNN8WSwoeSZNNqFQAVAW-39">
          <mxGeometry width="50" height="50" relative="1" as="geometry">
            <mxPoint x="855" y="1160" as="sourcePoint" />
            <mxPoint x="858" y="1130" as="targetPoint" />
            <Array as="points">
              <mxPoint x="885" y="950" />
            </Array>
          </mxGeometry>
        </mxCell>
        <mxCell id="oMDTGbjjS_mz81jbr0aV-1" value="Write Analytics Results" style="edgeLabel;html=1;align=center;verticalAlign=middle;resizable=0;points=[];fontFamily=Comic Sans MS;" vertex="1" connectable="0" parent="sZSjyrAfv_M8dWBOiLNt-3">
          <mxGeometry x="-0.397" y="-9" relative="1" as="geometry">
            <mxPoint x="-14" y="15" as="offset" />
          </mxGeometry>
        </mxCell>
        <mxCell id="oMDTGbjjS_mz81jbr0aV-2" value="" style="curved=1;endArrow=classic;html=1;rounded=0;exitX=0.5;exitY=1;exitDx=0;exitDy=0;entryX=1.006;entryY=0.169;entryDx=0;entryDy=0;entryPerimeter=0;fontFamily=Comic Sans MS;" edge="1" parent="1" source="6kwriRtmMuZ2P15k0v1l-1" target="qNN8WSwoeSZNNqFQAVAW-27">
          <mxGeometry width="50" height="50" relative="1" as="geometry">
            <mxPoint x="855" y="1160" as="sourcePoint" />
            <mxPoint x="905" y="1110" as="targetPoint" />
            <Array as="points">
              <mxPoint x="1135" y="910" />
              <mxPoint x="1095" y="940" />
            </Array>
          </mxGeometry>
        </mxCell>
        <mxCell id="oMDTGbjjS_mz81jbr0aV-3" value="Write Report Metadata" style="edgeLabel;html=1;align=center;verticalAlign=middle;resizable=0;points=[];fontFamily=Comic Sans MS;" vertex="1" connectable="0" parent="oMDTGbjjS_mz81jbr0aV-2">
          <mxGeometry x="0.0075" y="7" relative="1" as="geometry">
            <mxPoint as="offset" />
          </mxGeometry>
        </mxCell>
        <mxCell id="oMDTGbjjS_mz81jbr0aV-4" value="" style="curved=1;endArrow=classic;html=1;rounded=0;exitX=0.5;exitY=1;exitDx=0;exitDy=0;entryX=0.5;entryY=1;entryDx=0;entryDy=0;fontFamily=Comic Sans MS;" edge="1" parent="1" source="DBw0bLSpzc3265k-nplg-2" target="qNN8WSwoeSZNNqFQAVAW-28">
          <mxGeometry width="50" height="50" relative="1" as="geometry">
            <mxPoint x="855" y="1160" as="sourcePoint" />
            <mxPoint x="1165" y="1380" as="targetPoint" />
            <Array as="points">
              <mxPoint x="615" y="1280" />
              <mxPoint x="1175" y="1510" />
            </Array>
          </mxGeometry>
        </mxCell>
        <mxCell id="oMDTGbjjS_mz81jbr0aV-5" value="Store Raw Data" style="edgeLabel;html=1;align=center;verticalAlign=middle;resizable=0;points=[];fontFamily=Comic Sans MS;" vertex="1" connectable="0" parent="oMDTGbjjS_mz81jbr0aV-4">
          <mxGeometry x="0.3724" y="45" relative="1" as="geometry">
            <mxPoint as="offset" />
          </mxGeometry>
        </mxCell>
        <mxCell id="oMDTGbjjS_mz81jbr0aV-6" value="" style="curved=1;endArrow=classic;html=1;rounded=0;exitX=0.75;exitY=1;exitDx=0;exitDy=0;entryX=0.5;entryY=0;entryDx=0;entryDy=0;fontFamily=Comic Sans MS;" edge="1" parent="1" source="qNN8WSwoeSZNNqFQAVAW-39" target="qNN8WSwoeSZNNqFQAVAW-28">
          <mxGeometry width="50" height="50" relative="1" as="geometry">
            <mxPoint x="855" y="1160" as="sourcePoint" />
            <mxPoint x="905" y="1110" as="targetPoint" />
            <Array as="points">
              <mxPoint x="1275" y="950" />
            </Array>
          </mxGeometry>
        </mxCell>
        <mxCell id="oMDTGbjjS_mz81jbr0aV-7" value="Read Historical Data" style="edgeLabel;html=1;align=center;verticalAlign=middle;resizable=0;points=[];fontFamily=Comic Sans MS;" vertex="1" connectable="0" parent="oMDTGbjjS_mz81jbr0aV-6">
          <mxGeometry x="0.6572" y="-51" relative="1" as="geometry">
            <mxPoint x="1" as="offset" />
          </mxGeometry>
        </mxCell>
        <mxCell id="oMDTGbjjS_mz81jbr0aV-8" value="" style="curved=1;endArrow=classic;html=1;rounded=0;exitX=0.75;exitY=1;exitDx=0;exitDy=0;entryX=1;entryY=0.3;entryDx=0;entryDy=0;fontFamily=Comic Sans MS;" edge="1" parent="1" source="6kwriRtmMuZ2P15k0v1l-1" target="qNN8WSwoeSZNNqFQAVAW-28">
          <mxGeometry width="50" height="50" relative="1" as="geometry">
            <mxPoint x="855" y="1160" as="sourcePoint" />
            <mxPoint x="905" y="1110" as="targetPoint" />
            <Array as="points">
              <mxPoint x="1425" y="970" />
              <mxPoint x="1395" y="1080" />
            </Array>
          </mxGeometry>
        </mxCell>
        <mxCell id="oMDTGbjjS_mz81jbr0aV-9" value="Generate Scheduled Reports" style="edgeLabel;html=1;align=center;verticalAlign=middle;resizable=0;points=[];fontFamily=Comic Sans MS;" vertex="1" connectable="0" parent="oMDTGbjjS_mz81jbr0aV-8">
          <mxGeometry x="0.2456" y="-17" relative="1" as="geometry">
            <mxPoint as="offset" />
          </mxGeometry>
        </mxCell>
        <mxCell id="oMDTGbjjS_mz81jbr0aV-10" value="" style="curved=1;endArrow=classic;html=1;rounded=0;exitX=0.5;exitY=1;exitDx=0;exitDy=0;entryX=1;entryY=1;entryDx=0;entryDy=0;fontFamily=Comic Sans MS;" edge="1" parent="1" source="xDx8_VDq5MuYbjgj8BAs-1" target="_6GPDkqd9VZTJzSeS4Ry-2">
          <mxGeometry width="50" height="50" relative="1" as="geometry">
            <mxPoint x="855" y="1000" as="sourcePoint" />
            <mxPoint x="905" y="950" as="targetPoint" />
            <Array as="points">
              <mxPoint x="1475" y="1510" />
              <mxPoint x="795" y="1570" />
            </Array>
          </mxGeometry>
        </mxCell>
      </root>
    </mxGraphModel>
  </diagram>
  <diagram id="flMnv_X35rsW5LcWBTdR" name="Page-2">
    <mxGraphModel dx="1750" dy="937" grid="1" gridSize="10" guides="1" tooltips="1" connect="1" arrows="1" fold="1" page="1" pageScale="1" pageWidth="5000" pageHeight="5000" math="0" shadow="0">
      <root>
        <mxCell id="0" />
        <mxCell id="1" parent="0" />
        <mxCell id="Kx9xcI95gDtcA1zgnbfC-1" value="Monitoring" style="whiteSpace=wrap;strokeWidth=2;" vertex="1" parent="1">
          <mxGeometry x="1180" y="958" width="359" height="515" as="geometry" />
        </mxCell>
        <mxCell id="Kx9xcI95gDtcA1zgnbfC-2" value="Workers" style="whiteSpace=wrap;strokeWidth=2;" vertex="1" parent="1">
          <mxGeometry x="1559" y="1127" width="1459" height="128" as="geometry" />
        </mxCell>
        <mxCell id="Kx9xcI95gDtcA1zgnbfC-3" value="Storage" style="whiteSpace=wrap;strokeWidth=2;" vertex="1" parent="1">
          <mxGeometry x="2063" y="1345" width="1977" height="128" as="geometry" />
        </mxCell>
        <mxCell id="Kx9xcI95gDtcA1zgnbfC-4" value="AI Model Hosting" style="whiteSpace=wrap;strokeWidth=2;" vertex="1" parent="1">
          <mxGeometry x="3041" y="958" width="1071" height="297" as="geometry" />
        </mxCell>
        <mxCell id="Kx9xcI95gDtcA1zgnbfC-5" value="External Integration APIs" style="whiteSpace=wrap;strokeWidth=2;" vertex="1" parent="1">
          <mxGeometry x="2037" y="529" width="494" height="230" as="geometry" />
        </mxCell>
        <mxCell id="Kx9xcI95gDtcA1zgnbfC-6" value="IoT Sensors" style="whiteSpace=wrap;strokeWidth=2;" vertex="1" parent="1">
          <mxGeometry x="2587" y="150" width="140" height="54" as="geometry" />
        </mxCell>
        <mxCell id="Kx9xcI95gDtcA1zgnbfC-7" value="DNS Load Balancer" style="whiteSpace=wrap;strokeWidth=2;" vertex="1" parent="1">
          <mxGeometry x="2560" y="276" width="194" height="54" as="geometry" />
        </mxCell>
        <mxCell id="Kx9xcI95gDtcA1zgnbfC-8" value="Load Balancers" style="whiteSpace=wrap;strokeWidth=2;" vertex="1" parent="1">
          <mxGeometry x="2573" y="403" width="168" height="54" as="geometry" />
        </mxCell>
        <mxCell id="Kx9xcI95gDtcA1zgnbfC-9" value="App Server" style="whiteSpace=wrap;strokeWidth=2;" vertex="1" parent="1">
          <mxGeometry x="2588" y="554" width="138" height="54" as="geometry" />
        </mxCell>
        <mxCell id="Kx9xcI95gDtcA1zgnbfC-10" value="API Gateway" style="whiteSpace=wrap;strokeWidth=2;" vertex="1" parent="1">
          <mxGeometry x="2219" y="681" width="150" height="54" as="geometry" />
        </mxCell>
        <mxCell id="Kx9xcI95gDtcA1zgnbfC-11" value="Read API" style="whiteSpace=wrap;strokeWidth=2;" vertex="1" parent="1">
          <mxGeometry x="2052" y="832" width="121" height="54" as="geometry" />
        </mxCell>
        <mxCell id="Kx9xcI95gDtcA1zgnbfC-12" value="Write API" style="whiteSpace=wrap;strokeWidth=2;" vertex="1" parent="1">
          <mxGeometry x="2404" y="832" width="125" height="54" as="geometry" />
        </mxCell>
        <mxCell id="Kx9xcI95gDtcA1zgnbfC-13" value="RabbitMQ Message Broker" style="whiteSpace=wrap;strokeWidth=2;" vertex="1" parent="1">
          <mxGeometry x="2345" y="983" width="243" height="54" as="geometry" />
        </mxCell>
        <mxCell id="Kx9xcI95gDtcA1zgnbfC-14" value="Contamination Detection Workers" style="whiteSpace=wrap;strokeWidth=2;" vertex="1" parent="1">
          <mxGeometry x="3476" y="1152" width="260" height="78" as="geometry" />
        </mxCell>
        <mxCell id="Kx9xcI95gDtcA1zgnbfC-15" value="Notification Workers" style="whiteSpace=wrap;strokeWidth=2;" vertex="1" parent="1">
          <mxGeometry x="2324" y="1164" width="207" height="54" as="geometry" />
        </mxCell>
        <mxCell id="Kx9xcI95gDtcA1zgnbfC-16" value="Analytics Workers" style="whiteSpace=wrap;strokeWidth=2;" vertex="1" parent="1">
          <mxGeometry x="2790" y="1164" width="187" height="54" as="geometry" />
        </mxCell>
        <mxCell id="Kx9xcI95gDtcA1zgnbfC-17" value="Report Generation Workers" style="whiteSpace=wrap;strokeWidth=2;" vertex="1" parent="1">
          <mxGeometry x="1893" y="1164" width="254" height="54" as="geometry" />
        </mxCell>
        <mxCell id="Kx9xcI95gDtcA1zgnbfC-18" value="Redis Cache" style="whiteSpace=wrap;strokeWidth=2;" vertex="1" parent="1">
          <mxGeometry x="2098" y="1382" width="146" height="54" as="geometry" />
        </mxCell>
        <mxCell id="Kx9xcI95gDtcA1zgnbfC-19" value="PostgreSQL Database Cluster" style="whiteSpace=wrap;strokeWidth=2;" vertex="1" parent="1">
          <mxGeometry x="2658" y="1370" width="260" height="78" as="geometry" />
        </mxCell>
        <mxCell id="Kx9xcI95gDtcA1zgnbfC-20" value="F1" style="whiteSpace=wrap;strokeWidth=2;" vertex="1" parent="1">
          <mxGeometry x="3694" y="1382" width="77" height="54" as="geometry" />
        </mxCell>
        <mxCell id="Kx9xcI95gDtcA1zgnbfC-21" value="User Dashboard" style="whiteSpace=wrap;strokeWidth=2;" vertex="1" parent="1">
          <mxGeometry x="1273" y="1382" width="171" height="54" as="geometry" />
        </mxCell>
        <mxCell id="Kx9xcI95gDtcA1zgnbfC-22" value="External Systems" style="whiteSpace=wrap;strokeWidth=2;" vertex="1" parent="1">
          <mxGeometry x="1574" y="1382" width="181" height="54" as="geometry" />
        </mxCell>
        <mxCell id="Kx9xcI95gDtcA1zgnbfC-23" value="Authentication Service" style="whiteSpace=wrap;strokeWidth=2;" vertex="1" parent="1">
          <mxGeometry x="2624" y="681" width="223" height="54" as="geometry" />
        </mxCell>
        <mxCell id="Kx9xcI95gDtcA1zgnbfC-24" value="Public API" style="whiteSpace=wrap;strokeWidth=2;" vertex="1" parent="1">
          <mxGeometry x="2265" y="554" width="131" height="54" as="geometry" />
        </mxCell>
        <mxCell id="Kx9xcI95gDtcA1zgnbfC-25" value="Partner API" style="whiteSpace=wrap;strokeWidth=2;" vertex="1" parent="1">
          <mxGeometry x="2075" y="554" width="140" height="54" as="geometry" />
        </mxCell>
        <mxCell id="Kx9xcI95gDtcA1zgnbfC-26" value="AI Model Inference Service" style="whiteSpace=wrap;strokeWidth=2;" vertex="1" parent="1">
          <mxGeometry x="3079" y="983" width="251" height="54" as="geometry" />
        </mxCell>
        <mxCell id="Kx9xcI95gDtcA1zgnbfC-27" value="Monitoring Service" style="whiteSpace=wrap;strokeWidth=2;" vertex="1" parent="1">
          <mxGeometry x="1215" y="983" width="192" height="54" as="geometry" />
        </mxCell>
        <mxCell id="Kx9xcI95gDtcA1zgnbfC-28" value="Raw Data" style="curved=1;startArrow=none;endArrow=block;exitX=0.5;exitY=1;entryX=0.5;entryY=0.01;rounded=0;" edge="1" parent="1" source="Kx9xcI95gDtcA1zgnbfC-6" target="Kx9xcI95gDtcA1zgnbfC-7">
          <mxGeometry relative="1" as="geometry">
            <Array as="points" />
          </mxGeometry>
        </mxCell>
        <mxCell id="Kx9xcI95gDtcA1zgnbfC-29" value="Distribute Traffic" style="curved=1;startArrow=none;endArrow=block;exitX=0.5;exitY=1.01;entryX=0.5;entryY=0;rounded=0;" edge="1" parent="1" source="Kx9xcI95gDtcA1zgnbfC-7" target="Kx9xcI95gDtcA1zgnbfC-8">
          <mxGeometry relative="1" as="geometry">
            <Array as="points" />
          </mxGeometry>
        </mxCell>
        <mxCell id="Kx9xcI95gDtcA1zgnbfC-30" value="Requests" style="curved=1;startArrow=none;endArrow=block;exitX=0.5;exitY=1;entryX=0.5;entryY=0;rounded=0;" edge="1" parent="1" source="Kx9xcI95gDtcA1zgnbfC-8" target="Kx9xcI95gDtcA1zgnbfC-9">
          <mxGeometry relative="1" as="geometry">
            <Array as="points" />
          </mxGeometry>
        </mxCell>
        <mxCell id="Kx9xcI95gDtcA1zgnbfC-31" value="API Requests" style="curved=1;startArrow=none;endArrow=block;exitX=0;exitY=0.88;entryX=0.92;entryY=-0.01;rounded=0;" edge="1" parent="1" source="Kx9xcI95gDtcA1zgnbfC-9" target="Kx9xcI95gDtcA1zgnbfC-10">
          <mxGeometry relative="1" as="geometry">
            <Array as="points">
              <mxPoint x="2442" y="644" />
            </Array>
          </mxGeometry>
        </mxCell>
        <mxCell id="Kx9xcI95gDtcA1zgnbfC-32" value="Read Operations" style="curved=1;startArrow=none;endArrow=block;exitX=0;exitY=0.89;entryX=0.5;entryY=0;rounded=0;" edge="1" parent="1" source="Kx9xcI95gDtcA1zgnbfC-10" target="Kx9xcI95gDtcA1zgnbfC-11">
          <mxGeometry relative="1" as="geometry">
            <Array as="points">
              <mxPoint x="2112" y="760" />
            </Array>
          </mxGeometry>
        </mxCell>
        <mxCell id="Kx9xcI95gDtcA1zgnbfC-33" value="Write Operations" style="curved=1;startArrow=none;endArrow=block;exitX=1;exitY=0.91;entryX=0.5;entryY=0;rounded=0;" edge="1" parent="1" source="Kx9xcI95gDtcA1zgnbfC-10" target="Kx9xcI95gDtcA1zgnbfC-12">
          <mxGeometry relative="1" as="geometry">
            <Array as="points">
              <mxPoint x="2466" y="760" />
            </Array>
          </mxGeometry>
        </mxCell>
        <mxCell id="Kx9xcI95gDtcA1zgnbfC-34" value="Publish Tasks" style="curved=1;startArrow=none;endArrow=block;exitX=0.5;exitY=1;entryX=0.5;entryY=0.01;rounded=0;" edge="1" parent="1" source="Kx9xcI95gDtcA1zgnbfC-12" target="Kx9xcI95gDtcA1zgnbfC-13">
          <mxGeometry relative="1" as="geometry">
            <Array as="points" />
          </mxGeometry>
        </mxCell>
        <mxCell id="Kx9xcI95gDtcA1zgnbfC-35" value="Contamination Detection Tasks" style="curved=1;startArrow=none;endArrow=block;exitX=1;exitY=0.62;entryX=1;entryY=0.22;rounded=0;" edge="1" parent="1" source="Kx9xcI95gDtcA1zgnbfC-13" target="Kx9xcI95gDtcA1zgnbfC-14">
          <mxGeometry relative="1" as="geometry">
            <Array as="points">
              <mxPoint x="3974" y="1082" />
              <mxPoint x="3974" y="1127" />
            </Array>
          </mxGeometry>
        </mxCell>
        <mxCell id="Kx9xcI95gDtcA1zgnbfC-36" value="Notification Tasks" style="curved=1;startArrow=none;endArrow=block;exitX=0.44;exitY=1.01;entryX=0.5;entryY=0.01;rounded=0;" edge="1" parent="1" source="Kx9xcI95gDtcA1zgnbfC-13" target="Kx9xcI95gDtcA1zgnbfC-15">
          <mxGeometry relative="1" as="geometry">
            <Array as="points">
              <mxPoint x="2427" y="1082" />
            </Array>
          </mxGeometry>
        </mxCell>
        <mxCell id="Kx9xcI95gDtcA1zgnbfC-37" value="Analytics Tasks" style="curved=1;startArrow=none;endArrow=block;exitX=1;exitY=0.9;entryX=0.5;entryY=0.01;rounded=0;" edge="1" parent="1" source="Kx9xcI95gDtcA1zgnbfC-13" target="Kx9xcI95gDtcA1zgnbfC-16">
          <mxGeometry relative="1" as="geometry">
            <Array as="points">
              <mxPoint x="2883" y="1082" />
            </Array>
          </mxGeometry>
        </mxCell>
        <mxCell id="Kx9xcI95gDtcA1zgnbfC-38" value="Report Tasks" style="curved=1;startArrow=none;endArrow=block;exitX=0;exitY=0.87;entryX=0.5;entryY=0.01;rounded=0;" edge="1" parent="1" source="Kx9xcI95gDtcA1zgnbfC-13" target="Kx9xcI95gDtcA1zgnbfC-17">
          <mxGeometry relative="1" as="geometry">
            <Array as="points">
              <mxPoint x="2020" y="1082" />
            </Array>
          </mxGeometry>
        </mxCell>
        <mxCell id="Kx9xcI95gDtcA1zgnbfC-39" value="Read Thresholds" style="curved=1;startArrow=none;endArrow=block;exitX=0;exitY=0.74;entryX=0.5;entryY=0.01;rounded=0;" edge="1" parent="1" source="Kx9xcI95gDtcA1zgnbfC-14" target="Kx9xcI95gDtcA1zgnbfC-18">
          <mxGeometry relative="1" as="geometry">
            <Array as="points">
              <mxPoint x="3144" y="1255" />
              <mxPoint x="2171" y="1300" />
            </Array>
          </mxGeometry>
        </mxCell>
        <mxCell id="Kx9xcI95gDtcA1zgnbfC-40" value="Write Processed Data" style="curved=1;startArrow=none;endArrow=block;exitX=0.67;exitY=1.01;entryX=1;entryY=0.28;rounded=0;" edge="1" parent="1" source="Kx9xcI95gDtcA1zgnbfC-14" target="Kx9xcI95gDtcA1zgnbfC-19">
          <mxGeometry relative="1" as="geometry">
            <Array as="points">
              <mxPoint x="3678" y="1255" />
              <mxPoint x="3264" y="1300" />
              <mxPoint x="3264" y="1345" />
            </Array>
          </mxGeometry>
        </mxCell>
        <mxCell id="Kx9xcI95gDtcA1zgnbfC-41" value="Store Raw Data" style="curved=1;startArrow=none;endArrow=block;exitX=1;exitY=0.78;entryX=1;entryY=0.33;rounded=0;" edge="1" parent="1" source="Kx9xcI95gDtcA1zgnbfC-14" target="Kx9xcI95gDtcA1zgnbfC-20">
          <mxGeometry relative="1" as="geometry">
            <Array as="points">
              <mxPoint x="3993" y="1255" />
              <mxPoint x="3993" y="1345" />
            </Array>
          </mxGeometry>
        </mxCell>
        <mxCell id="Kx9xcI95gDtcA1zgnbfC-42" value="Fetch User Preferences" style="curved=1;startArrow=none;endArrow=block;exitX=0.59;exitY=1.01;entryX=1;entryY=0.14;rounded=0;" edge="1" parent="1" source="Kx9xcI95gDtcA1zgnbfC-15" target="Kx9xcI95gDtcA1zgnbfC-19">
          <mxGeometry relative="1" as="geometry">
            <Array as="points">
              <mxPoint x="2472" y="1255" />
              <mxPoint x="3081" y="1300" />
              <mxPoint x="3081" y="1345" />
            </Array>
          </mxGeometry>
        </mxCell>
        <mxCell id="Kx9xcI95gDtcA1zgnbfC-43" value="Log Notifications" style="curved=1;startArrow=none;endArrow=block;exitX=0.4;exitY=1.01;entryX=0.79;entryY=0.01;rounded=0;" edge="1" parent="1" source="Kx9xcI95gDtcA1zgnbfC-15" target="Kx9xcI95gDtcA1zgnbfC-19">
          <mxGeometry relative="1" as="geometry">
            <Array as="points">
              <mxPoint x="2378" y="1255" />
              <mxPoint x="2914" y="1300" />
              <mxPoint x="2914" y="1345" />
            </Array>
          </mxGeometry>
        </mxCell>
        <mxCell id="Kx9xcI95gDtcA1zgnbfC-44" value="Send Alerts" style="curved=1;startArrow=none;endArrow=block;exitX=0;exitY=0.66;entryX=0.72;entryY=0.01;rounded=0;" edge="1" parent="1" source="Kx9xcI95gDtcA1zgnbfC-15" target="Kx9xcI95gDtcA1zgnbfC-21">
          <mxGeometry relative="1" as="geometry">
            <Array as="points">
              <mxPoint x="1631" y="1255" />
              <mxPoint x="1447" y="1300" />
              <mxPoint x="1447" y="1345" />
            </Array>
          </mxGeometry>
        </mxCell>
        <mxCell id="Kx9xcI95gDtcA1zgnbfC-45" value="Send Notifications" style="curved=1;startArrow=none;endArrow=block;exitX=0;exitY=0.67;entryX=0.5;entryY=0.01;rounded=0;" edge="1" parent="1" source="Kx9xcI95gDtcA1zgnbfC-15" target="Kx9xcI95gDtcA1zgnbfC-22">
          <mxGeometry relative="1" as="geometry">
            <Array as="points">
              <mxPoint x="1664" y="1255" />
            </Array>
          </mxGeometry>
        </mxCell>
        <mxCell id="Kx9xcI95gDtcA1zgnbfC-46" value="Read Historical Data" style="curved=1;startArrow=none;endArrow=block;exitX=0.63;exitY=1.01;entryX=0.56;entryY=0.01;rounded=0;" edge="1" parent="1" source="Kx9xcI95gDtcA1zgnbfC-16" target="Kx9xcI95gDtcA1zgnbfC-20">
          <mxGeometry relative="1" as="geometry">
            <Array as="points">
              <mxPoint x="2943" y="1255" />
              <mxPoint x="3743" y="1300" />
              <mxPoint x="3743" y="1345" />
            </Array>
          </mxGeometry>
        </mxCell>
        <mxCell id="Kx9xcI95gDtcA1zgnbfC-47" value="Read Aggregated Data" style="curved=1;startArrow=none;endArrow=block;exitX=0;exitY=0.69;entryX=0.41;entryY=0.01;rounded=0;" edge="1" parent="1" source="Kx9xcI95gDtcA1zgnbfC-16" target="Kx9xcI95gDtcA1zgnbfC-19">
          <mxGeometry relative="1" as="geometry">
            <Array as="points">
              <mxPoint x="2286" y="1255" />
              <mxPoint x="2751" y="1300" />
              <mxPoint x="2751" y="1345" />
            </Array>
          </mxGeometry>
        </mxCell>
        <mxCell id="Kx9xcI95gDtcA1zgnbfC-48" value="Write Analytics Results" style="curved=1;startArrow=none;endArrow=block;exitX=0;exitY=0.67;entryX=0;entryY=0.02;rounded=0;" edge="1" parent="1" source="Kx9xcI95gDtcA1zgnbfC-16" target="Kx9xcI95gDtcA1zgnbfC-19">
          <mxGeometry relative="1" as="geometry">
            <Array as="points">
              <mxPoint x="2184" y="1255" />
              <mxPoint x="2567" y="1300" />
              <mxPoint x="2567" y="1345" />
            </Array>
          </mxGeometry>
        </mxCell>
        <mxCell id="Kx9xcI95gDtcA1zgnbfC-49" value="Archive Reports" style="curved=1;startArrow=none;endArrow=block;exitX=0.19;exitY=1.01;entryX=0;entryY=0.19;rounded=0;" edge="1" parent="1" source="Kx9xcI95gDtcA1zgnbfC-16" target="Kx9xcI95gDtcA1zgnbfC-20">
          <mxGeometry relative="1" as="geometry">
            <Array as="points">
              <mxPoint x="2746" y="1255" />
              <mxPoint x="3590" y="1300" />
              <mxPoint x="3590" y="1345" />
            </Array>
          </mxGeometry>
        </mxCell>
        <mxCell id="Kx9xcI95gDtcA1zgnbfC-50" value="Generate Scheduled Reports" style="curved=1;startArrow=none;endArrow=block;exitX=1;exitY=0.74;entryX=0;entryY=0.35;rounded=0;" edge="1" parent="1" source="Kx9xcI95gDtcA1zgnbfC-17" target="Kx9xcI95gDtcA1zgnbfC-20">
          <mxGeometry relative="1" as="geometry">
            <Array as="points">
              <mxPoint x="2659" y="1255" />
              <mxPoint x="3437" y="1300" />
              <mxPoint x="3437" y="1345" />
            </Array>
          </mxGeometry>
        </mxCell>
        <mxCell id="Kx9xcI95gDtcA1zgnbfC-51" value="Write Report Metadata" style="curved=1;startArrow=none;endArrow=block;exitX=0.54;exitY=1.01;entryX=0;entryY=0.24;rounded=0;" edge="1" parent="1" source="Kx9xcI95gDtcA1zgnbfC-17" target="Kx9xcI95gDtcA1zgnbfC-19">
          <mxGeometry relative="1" as="geometry">
            <Array as="points">
              <mxPoint x="2042" y="1255" />
              <mxPoint x="2379" y="1300" />
              <mxPoint x="2379" y="1345" />
            </Array>
          </mxGeometry>
        </mxCell>
        <mxCell id="Kx9xcI95gDtcA1zgnbfC-52" value="Push Reports" style="curved=1;startArrow=none;endArrow=block;exitX=0;exitY=0.88;entryX=0.45;entryY=0.01;rounded=0;" edge="1" parent="1" source="Kx9xcI95gDtcA1zgnbfC-17" target="Kx9xcI95gDtcA1zgnbfC-21">
          <mxGeometry relative="1" as="geometry">
            <Array as="points">
              <mxPoint x="1611" y="1255" />
              <mxPoint x="1337" y="1300" />
              <mxPoint x="1337" y="1345" />
            </Array>
          </mxGeometry>
        </mxCell>
        <mxCell id="Kx9xcI95gDtcA1zgnbfC-53" value="Authenticate Users" style="curved=1;startArrow=none;endArrow=block;exitX=0.98;exitY=1;entryX=0.65;entryY=-0.01;rounded=0;" edge="1" parent="1" source="Kx9xcI95gDtcA1zgnbfC-9" target="Kx9xcI95gDtcA1zgnbfC-23">
          <mxGeometry relative="1" as="geometry">
            <Array as="points">
              <mxPoint x="2813" y="644" />
            </Array>
          </mxGeometry>
        </mxCell>
        <mxCell id="Kx9xcI95gDtcA1zgnbfC-54" value="Role-Based Access" style="curved=1;startArrow=none;endArrow=block;exitX=0.35;exitY=-0.01;entryX=0.5;entryY=1;rounded=0;" edge="1" parent="1" source="Kx9xcI95gDtcA1zgnbfC-23" target="Kx9xcI95gDtcA1zgnbfC-9">
          <mxGeometry relative="1" as="geometry">
            <Array as="points">
              <mxPoint x="2656" y="644" />
            </Array>
          </mxGeometry>
        </mxCell>
        <mxCell id="Kx9xcI95gDtcA1zgnbfC-55" value="Access Data" style="curved=1;startArrow=none;endArrow=block;exitX=0.5;exitY=1;entryX=0.6;entryY=-0.01;rounded=0;" edge="1" parent="1" source="Kx9xcI95gDtcA1zgnbfC-24" target="Kx9xcI95gDtcA1zgnbfC-10">
          <mxGeometry relative="1" as="geometry">
            <Array as="points">
              <mxPoint x="2330" y="644" />
            </Array>
          </mxGeometry>
        </mxCell>
        <mxCell id="Kx9xcI95gDtcA1zgnbfC-56" value="Specialized Access" style="curved=1;startArrow=none;endArrow=block;exitX=0.5;exitY=1;entryX=0.07;entryY=-0.01;rounded=0;" edge="1" parent="1" source="Kx9xcI95gDtcA1zgnbfC-25" target="Kx9xcI95gDtcA1zgnbfC-10">
          <mxGeometry relative="1" as="geometry">
            <Array as="points">
              <mxPoint x="2145" y="644" />
            </Array>
          </mxGeometry>
        </mxCell>
        <mxCell id="Kx9xcI95gDtcA1zgnbfC-57" value="Contamination Analysis" style="curved=1;startArrow=none;endArrow=block;exitX=0.5;exitY=1.01;entryX=0;entryY=0.24;rounded=0;" edge="1" parent="1" source="Kx9xcI95gDtcA1zgnbfC-26" target="Kx9xcI95gDtcA1zgnbfC-14">
          <mxGeometry relative="1" as="geometry">
            <Array as="points">
              <mxPoint x="3204" y="1127" />
            </Array>
          </mxGeometry>
        </mxCell>
        <mxCell id="Kx9xcI95gDtcA1zgnbfC-58" value="Metrics" style="curved=1;startArrow=none;endArrow=block;exitX=0.42;exitY=1.01;entryX=0.28;entryY=0.01;rounded=0;" edge="1" parent="1" source="Kx9xcI95gDtcA1zgnbfC-27" target="Kx9xcI95gDtcA1zgnbfC-21">
          <mxGeometry relative="1" as="geometry">
            <Array as="points">
              <mxPoint x="1270" y="1082" />
              <mxPoint x="1270" y="1345" />
            </Array>
          </mxGeometry>
        </mxCell>
        <mxCell id="Kx9xcI95gDtcA1zgnbfC-59" value="System Alerts" style="curved=1;startArrow=none;endArrow=block;exitX=0.67;exitY=1.01;entryX=0;entryY=0.39;rounded=0;" edge="1" parent="1" source="Kx9xcI95gDtcA1zgnbfC-27" target="Kx9xcI95gDtcA1zgnbfC-15">
          <mxGeometry relative="1" as="geometry">
            <Array as="points">
              <mxPoint x="1396" y="1082" />
              <mxPoint x="1396" y="1127" />
            </Array>
          </mxGeometry>
        </mxCell>
        <mxCell id="gbL5R33CATIOaNU3N9NX-1" value="User Access" style="whiteSpace=wrap;strokeWidth=2;" vertex="1" parent="1">
          <mxGeometry x="4161" y="2332" width="240" height="255" as="geometry" />
        </mxCell>
        <mxCell id="gbL5R33CATIOaNU3N9NX-2" value="Monitoring" style="whiteSpace=wrap;strokeWidth=2;" vertex="1" parent="1">
          <mxGeometry x="3783" y="2483" width="358" height="540" as="geometry" />
        </mxCell>
        <mxCell id="gbL5R33CATIOaNU3N9NX-3" value="Workers" style="whiteSpace=wrap;strokeWidth=2;" vertex="1" parent="1">
          <mxGeometry x="2085" y="2677" width="1632" height="128" as="geometry" />
        </mxCell>
        <mxCell id="gbL5R33CATIOaNU3N9NX-4" value="Storage" style="whiteSpace=wrap;strokeWidth=2;" vertex="1" parent="1">
          <mxGeometry x="856" y="2895" width="2532" height="128" as="geometry" />
        </mxCell>
        <mxCell id="gbL5R33CATIOaNU3N9NX-5" value="AI Model Hosting" style="whiteSpace=wrap;strokeWidth=2;" vertex="1" parent="1">
          <mxGeometry x="1082" y="2483" width="962" height="322" as="geometry" />
        </mxCell>
        <mxCell id="gbL5R33CATIOaNU3N9NX-6" value="External Integration APIs" style="whiteSpace=wrap;strokeWidth=2;" vertex="1" parent="1">
          <mxGeometry x="876" y="2029" width="3494" height="230" as="geometry" />
        </mxCell>
        <mxCell id="gbL5R33CATIOaNU3N9NX-7" value="IoT Sensors" style="whiteSpace=wrap;strokeWidth=2;" vertex="1" parent="1">
          <mxGeometry x="4460" y="1650" width="140" height="54" as="geometry" />
        </mxCell>
        <mxCell id="gbL5R33CATIOaNU3N9NX-8" value="DNS Load Balancer" style="whiteSpace=wrap;strokeWidth=2;" vertex="1" parent="1">
          <mxGeometry x="4433" y="1776" width="194" height="54" as="geometry" />
        </mxCell>
        <mxCell id="gbL5R33CATIOaNU3N9NX-9" value="Load Balancers" style="whiteSpace=wrap;strokeWidth=2;" vertex="1" parent="1">
          <mxGeometry x="4446" y="1903" width="168" height="54" as="geometry" />
        </mxCell>
        <mxCell id="gbL5R33CATIOaNU3N9NX-10" value="App Server" style="whiteSpace=wrap;strokeWidth=2;" vertex="1" parent="1">
          <mxGeometry x="4461" y="2054" width="138" height="54" as="geometry" />
        </mxCell>
        <mxCell id="gbL5R33CATIOaNU3N9NX-11" value="API Gateway" style="whiteSpace=wrap;strokeWidth=2;" vertex="1" parent="1">
          <mxGeometry x="2610" y="2181" width="150" height="54" as="geometry" />
        </mxCell>
        <mxCell id="gbL5R33CATIOaNU3N9NX-12" value="Read API" style="whiteSpace=wrap;strokeWidth=2;" vertex="1" parent="1">
          <mxGeometry x="926" y="2714" width="121" height="54" as="geometry" />
        </mxCell>
        <mxCell id="gbL5R33CATIOaNU3N9NX-13" value="Write API" style="whiteSpace=wrap;strokeWidth=2;" vertex="1" parent="1">
          <mxGeometry x="4215" y="2357" width="125" height="54" as="geometry" />
        </mxCell>
        <mxCell id="gbL5R33CATIOaNU3N9NX-14" value="RabbitMQ Message Broker" style="whiteSpace=wrap;strokeWidth=2;" vertex="1" parent="1">
          <mxGeometry x="2373" y="2508" width="243" height="54" as="geometry" />
        </mxCell>
        <mxCell id="gbL5R33CATIOaNU3N9NX-15" value="Contamination Detection Workers" style="whiteSpace=wrap;strokeWidth=2;" vertex="1" parent="1">
          <mxGeometry x="1360" y="2702" width="260" height="78" as="geometry" />
        </mxCell>
        <mxCell id="gbL5R33CATIOaNU3N9NX-16" value="Notification Workers" style="whiteSpace=wrap;strokeWidth=2;" vertex="1" parent="1">
          <mxGeometry x="2483" y="2714" width="207" height="54" as="geometry" />
        </mxCell>
        <mxCell id="gbL5R33CATIOaNU3N9NX-17" value="Analytics Workers" style="whiteSpace=wrap;strokeWidth=2;" vertex="1" parent="1">
          <mxGeometry x="2202" y="2714" width="187" height="54" as="geometry" />
        </mxCell>
        <mxCell id="gbL5R33CATIOaNU3N9NX-18" value="Report Generation Workers" style="whiteSpace=wrap;strokeWidth=2;" vertex="1" parent="1">
          <mxGeometry x="3244" y="2714" width="254" height="54" as="geometry" />
        </mxCell>
        <mxCell id="gbL5R33CATIOaNU3N9NX-19" value="Redis Cache" style="whiteSpace=wrap;strokeWidth=2;" vertex="1" parent="1">
          <mxGeometry x="906" y="2932" width="146" height="54" as="geometry" />
        </mxCell>
        <mxCell id="gbL5R33CATIOaNU3N9NX-20" value="PostgreSQL Database Cluster" style="whiteSpace=wrap;strokeWidth=2;" vertex="1" parent="1">
          <mxGeometry x="1679" y="2920" width="260" height="78" as="geometry" />
        </mxCell>
        <mxCell id="gbL5R33CATIOaNU3N9NX-21" value="F1" style="whiteSpace=wrap;strokeWidth=2;" vertex="1" parent="1">
          <mxGeometry x="2913" y="2932" width="77" height="54" as="geometry" />
        </mxCell>
        <mxCell id="gbL5R33CATIOaNU3N9NX-22" value="User Dashboard" style="whiteSpace=wrap;strokeWidth=2;" vertex="1" parent="1">
          <mxGeometry x="3927" y="2932" width="171" height="54" as="geometry" />
        </mxCell>
        <mxCell id="gbL5R33CATIOaNU3N9NX-23" value="External Systems" style="whiteSpace=wrap;strokeWidth=2;" vertex="1" parent="1">
          <mxGeometry x="3431" y="2932" width="181" height="54" as="geometry" />
        </mxCell>
        <mxCell id="gbL5R33CATIOaNU3N9NX-24" value="Authentication Service" style="whiteSpace=wrap;strokeWidth=2;" vertex="1" parent="1">
          <mxGeometry x="4497" y="2181" width="223" height="54" as="geometry" />
        </mxCell>
        <mxCell id="gbL5R33CATIOaNU3N9NX-25" value="Public API" style="whiteSpace=wrap;strokeWidth=2;" vertex="1" parent="1">
          <mxGeometry x="2528" y="2054" width="131" height="54" as="geometry" />
        </mxCell>
        <mxCell id="gbL5R33CATIOaNU3N9NX-26" value="Partner API" style="whiteSpace=wrap;strokeWidth=2;" vertex="1" parent="1">
          <mxGeometry x="4194" y="2054" width="140" height="54" as="geometry" />
        </mxCell>
        <mxCell id="gbL5R33CATIOaNU3N9NX-27" value="AI Model Inference Service" style="whiteSpace=wrap;strokeWidth=2;" vertex="1" parent="1">
          <mxGeometry x="1757" y="2508" width="251" height="54" as="geometry" />
        </mxCell>
        <mxCell id="gbL5R33CATIOaNU3N9NX-28" value="Monitoring Service" style="whiteSpace=wrap;strokeWidth=2;" vertex="1" parent="1">
          <mxGeometry x="3891" y="2508" width="192" height="54" as="geometry" />
        </mxCell>
        <mxCell id="gbL5R33CATIOaNU3N9NX-29" value="CDN" style="whiteSpace=wrap;strokeWidth=2;" vertex="1" parent="1">
          <mxGeometry x="4267" y="2508" width="90" height="54" as="geometry" />
        </mxCell>
        <mxCell id="gbL5R33CATIOaNU3N9NX-30" value="Raw Data" style="curved=1;startArrow=none;endArrow=block;exitX=0.5;exitY=1;entryX=0.5;entryY=0.01;rounded=0;" edge="1" parent="1" source="gbL5R33CATIOaNU3N9NX-7" target="gbL5R33CATIOaNU3N9NX-8">
          <mxGeometry relative="1" as="geometry">
            <Array as="points" />
          </mxGeometry>
        </mxCell>
        <mxCell id="gbL5R33CATIOaNU3N9NX-31" value="Distribute Traffic" style="curved=1;startArrow=none;endArrow=block;exitX=0.5;exitY=1.01;entryX=0.5;entryY=0;rounded=0;" edge="1" parent="1" source="gbL5R33CATIOaNU3N9NX-8" target="gbL5R33CATIOaNU3N9NX-9">
          <mxGeometry relative="1" as="geometry">
            <Array as="points" />
          </mxGeometry>
        </mxCell>
        <mxCell id="gbL5R33CATIOaNU3N9NX-32" value="Requests" style="curved=1;startArrow=none;endArrow=block;exitX=0.5;exitY=1;entryX=0.5;entryY=0;rounded=0;" edge="1" parent="1" source="gbL5R33CATIOaNU3N9NX-9" target="gbL5R33CATIOaNU3N9NX-10">
          <mxGeometry relative="1" as="geometry">
            <Array as="points" />
          </mxGeometry>
        </mxCell>
        <mxCell id="gbL5R33CATIOaNU3N9NX-33" value="API Requests" style="curved=1;startArrow=none;endArrow=block;exitX=0;exitY=0.53;entryX=0;entryY=0.44;rounded=0;" edge="1" parent="1" source="gbL5R33CATIOaNU3N9NX-10" target="gbL5R33CATIOaNU3N9NX-11">
          <mxGeometry relative="1" as="geometry">
            <Array as="points">
              <mxPoint x="944" y="2144" />
            </Array>
          </mxGeometry>
        </mxCell>
        <mxCell id="gbL5R33CATIOaNU3N9NX-34" value="Read Operations" style="curved=1;startArrow=none;endArrow=block;exitX=0;exitY=0.54;entryX=0.5;entryY=0.01;rounded=0;" edge="1" parent="1" source="gbL5R33CATIOaNU3N9NX-11" target="gbL5R33CATIOaNU3N9NX-12">
          <mxGeometry relative="1" as="geometry">
            <Array as="points">
              <mxPoint x="987" y="2260" />
            </Array>
          </mxGeometry>
        </mxCell>
        <mxCell id="gbL5R33CATIOaNU3N9NX-35" value="Write Operations" style="curved=1;startArrow=none;endArrow=block;exitX=1;exitY=0.54;entryX=0.5;entryY=0;rounded=0;" edge="1" parent="1" source="gbL5R33CATIOaNU3N9NX-11" target="gbL5R33CATIOaNU3N9NX-13">
          <mxGeometry relative="1" as="geometry">
            <Array as="points">
              <mxPoint x="4278" y="2260" />
            </Array>
          </mxGeometry>
        </mxCell>
        <mxCell id="gbL5R33CATIOaNU3N9NX-36" value="Publish Tasks" style="curved=1;startArrow=none;endArrow=block;exitX=0.39;exitY=1;entryX=1;entryY=0.44;rounded=0;" edge="1" parent="1" source="gbL5R33CATIOaNU3N9NX-13" target="gbL5R33CATIOaNU3N9NX-14">
          <mxGeometry relative="1" as="geometry">
            <Array as="points">
              <mxPoint x="4244" y="2447" />
              <mxPoint x="4244" y="2483" />
            </Array>
          </mxGeometry>
        </mxCell>
        <mxCell id="gbL5R33CATIOaNU3N9NX-37" value="Contamination Detection Tasks" style="curved=1;startArrow=none;endArrow=block;exitX=0;exitY=0.6;entryX=0;entryY=0.11;rounded=0;" edge="1" parent="1" source="gbL5R33CATIOaNU3N9NX-14" target="gbL5R33CATIOaNU3N9NX-15">
          <mxGeometry relative="1" as="geometry">
            <Array as="points">
              <mxPoint x="1221" y="2587" />
              <mxPoint x="1221" y="2677" />
            </Array>
          </mxGeometry>
        </mxCell>
        <mxCell id="gbL5R33CATIOaNU3N9NX-38" value="Notification Tasks" style="curved=1;startArrow=none;endArrow=block;exitX=0.7;exitY=1.01;entryX=0.5;entryY=0.01;rounded=0;" edge="1" parent="1" source="gbL5R33CATIOaNU3N9NX-14" target="gbL5R33CATIOaNU3N9NX-16">
          <mxGeometry relative="1" as="geometry">
            <Array as="points">
              <mxPoint x="2586" y="2587" />
            </Array>
          </mxGeometry>
        </mxCell>
        <mxCell id="gbL5R33CATIOaNU3N9NX-39" value="Analytics Tasks" style="curved=1;startArrow=none;endArrow=block;exitX=0.07;exitY=1.01;entryX=0.5;entryY=0.01;rounded=0;" edge="1" parent="1" source="gbL5R33CATIOaNU3N9NX-14" target="gbL5R33CATIOaNU3N9NX-17">
          <mxGeometry relative="1" as="geometry">
            <Array as="points">
              <mxPoint x="2295" y="2587" />
            </Array>
          </mxGeometry>
        </mxCell>
        <mxCell id="gbL5R33CATIOaNU3N9NX-40" value="Report Tasks" style="curved=1;startArrow=none;endArrow=block;exitX=1;exitY=0.64;entryX=0.5;entryY=0.01;rounded=0;" edge="1" parent="1" source="gbL5R33CATIOaNU3N9NX-14" target="gbL5R33CATIOaNU3N9NX-18">
          <mxGeometry relative="1" as="geometry">
            <Array as="points">
              <mxPoint x="3371" y="2587" />
            </Array>
          </mxGeometry>
        </mxCell>
        <mxCell id="gbL5R33CATIOaNU3N9NX-41" value="Fetch Frequently Accessed Data" style="curved=1;startArrow=none;endArrow=block;exitX=0.3;exitY=1.01;entryX=0.36;entryY=0.01;rounded=0;" edge="1" parent="1" source="gbL5R33CATIOaNU3N9NX-12" target="gbL5R33CATIOaNU3N9NX-19">
          <mxGeometry relative="1" as="geometry">
            <Array as="points">
              <mxPoint x="929" y="2805" />
              <mxPoint x="929" y="2895" />
            </Array>
          </mxGeometry>
        </mxCell>
        <mxCell id="gbL5R33CATIOaNU3N9NX-42" value="Query Structured Data" style="curved=1;startArrow=none;endArrow=block;exitX=0.63;exitY=1.01;entryX=0;entryY=0.31;rounded=0;" edge="1" parent="1" source="gbL5R33CATIOaNU3N9NX-12" target="gbL5R33CATIOaNU3N9NX-20">
          <mxGeometry relative="1" as="geometry">
            <Array as="points">
              <mxPoint x="1025" y="2805" />
              <mxPoint x="1270" y="2850" />
              <mxPoint x="1270" y="2895" />
            </Array>
          </mxGeometry>
        </mxCell>
        <mxCell id="gbL5R33CATIOaNU3N9NX-43" value="Retrieve Historical Data" style="curved=1;startArrow=none;endArrow=block;exitX=1;exitY=0.57;entryX=0;entryY=0.34;rounded=0;" edge="1" parent="1" source="gbL5R33CATIOaNU3N9NX-12" target="gbL5R33CATIOaNU3N9NX-21">
          <mxGeometry relative="1" as="geometry">
            <Array as="points">
              <mxPoint x="2065" y="2805" />
              <mxPoint x="2681" y="2850" />
              <mxPoint x="2681" y="2895" />
            </Array>
          </mxGeometry>
        </mxCell>
        <mxCell id="gbL5R33CATIOaNU3N9NX-44" value="Read Thresholds" style="curved=1;startArrow=none;endArrow=block;exitX=0;exitY=0.85;entryX=0.87;entryY=0.01;rounded=0;" edge="1" parent="1" source="gbL5R33CATIOaNU3N9NX-15" target="gbL5R33CATIOaNU3N9NX-19">
          <mxGeometry relative="1" as="geometry">
            <Array as="points">
              <mxPoint x="1185" y="2805" />
              <mxPoint x="1107" y="2850" />
              <mxPoint x="1107" y="2895" />
            </Array>
          </mxGeometry>
        </mxCell>
        <mxCell id="gbL5R33CATIOaNU3N9NX-45" value="Write Processed Data" style="curved=1;startArrow=none;endArrow=block;exitX=0.5;exitY=1.01;entryX=0;entryY=0.17;rounded=0;" edge="1" parent="1" source="gbL5R33CATIOaNU3N9NX-15" target="gbL5R33CATIOaNU3N9NX-20">
          <mxGeometry relative="1" as="geometry">
            <Array as="points">
              <mxPoint x="1490" y="2895" />
            </Array>
          </mxGeometry>
        </mxCell>
        <mxCell id="gbL5R33CATIOaNU3N9NX-46" value="Store Raw Data" style="curved=1;startArrow=none;endArrow=block;exitX=1;exitY=0.74;entryX=0;entryY=0.08;rounded=0;" edge="1" parent="1" source="gbL5R33CATIOaNU3N9NX-15" target="gbL5R33CATIOaNU3N9NX-21">
          <mxGeometry relative="1" as="geometry">
            <Array as="points">
              <mxPoint x="1952" y="2805" />
              <mxPoint x="2845" y="2850" />
              <mxPoint x="2845" y="2895" />
            </Array>
          </mxGeometry>
        </mxCell>
        <mxCell id="gbL5R33CATIOaNU3N9NX-47" value="Fetch User Preferences" style="curved=1;startArrow=none;endArrow=block;exitX=0;exitY=0.92;entryX=0.25;entryY=0.01;rounded=0;" edge="1" parent="1" source="gbL5R33CATIOaNU3N9NX-16" target="gbL5R33CATIOaNU3N9NX-20">
          <mxGeometry relative="1" as="geometry">
            <Array as="points">
              <mxPoint x="2292" y="2805" />
              <mxPoint x="1704" y="2850" />
              <mxPoint x="1704" y="2895" />
            </Array>
          </mxGeometry>
        </mxCell>
        <mxCell id="gbL5R33CATIOaNU3N9NX-48" value="Log Notifications" style="curved=1;startArrow=none;endArrow=block;exitX=0.09;exitY=1.01;entryX=0.84;entryY=0.01;rounded=0;" edge="1" parent="1" source="gbL5R33CATIOaNU3N9NX-16" target="gbL5R33CATIOaNU3N9NX-20">
          <mxGeometry relative="1" as="geometry">
            <Array as="points">
              <mxPoint x="2386" y="2805" />
              <mxPoint x="1956" y="2850" />
              <mxPoint x="1956" y="2895" />
            </Array>
          </mxGeometry>
        </mxCell>
        <mxCell id="gbL5R33CATIOaNU3N9NX-49" value="Send Alerts" style="curved=1;startArrow=none;endArrow=block;exitX=1;exitY=0.62;entryX=0.09;entryY=0.01;rounded=0;" edge="1" parent="1" source="gbL5R33CATIOaNU3N9NX-16" target="gbL5R33CATIOaNU3N9NX-22">
          <mxGeometry relative="1" as="geometry">
            <Array as="points">
              <mxPoint x="3677" y="2805" />
              <mxPoint x="3845" y="2850" />
              <mxPoint x="3845" y="2895" />
            </Array>
          </mxGeometry>
        </mxCell>
        <mxCell id="gbL5R33CATIOaNU3N9NX-50" value="Send Notifications" style="curved=1;startArrow=none;endArrow=block;exitX=1;exitY=0.64;entryX=0.5;entryY=0.01;rounded=0;" edge="1" parent="1" source="gbL5R33CATIOaNU3N9NX-16" target="gbL5R33CATIOaNU3N9NX-23">
          <mxGeometry relative="1" as="geometry">
            <Array as="points">
              <mxPoint x="3522" y="2805" />
            </Array>
          </mxGeometry>
        </mxCell>
        <mxCell id="gbL5R33CATIOaNU3N9NX-51" value="Read Historical Data" style="curved=1;startArrow=none;endArrow=block;exitX=1;exitY=0.66;entryX=0.96;entryY=0.01;rounded=0;" edge="1" parent="1" source="gbL5R33CATIOaNU3N9NX-17" target="gbL5R33CATIOaNU3N9NX-21">
          <mxGeometry relative="1" as="geometry">
            <Array as="points">
              <mxPoint x="3035" y="2805" />
              <mxPoint x="3035" y="2895" />
            </Array>
          </mxGeometry>
        </mxCell>
        <mxCell id="gbL5R33CATIOaNU3N9NX-52" value="Read Aggregated Data" style="curved=1;startArrow=none;endArrow=block;exitX=0.91;exitY=1.01;entryX=1;entryY=0.16;rounded=0;" edge="1" parent="1" source="gbL5R33CATIOaNU3N9NX-17" target="gbL5R33CATIOaNU3N9NX-20">
          <mxGeometry relative="1" as="geometry">
            <Array as="points">
              <mxPoint x="2477" y="2805" />
              <mxPoint x="2119" y="2850" />
              <mxPoint x="2119" y="2895" />
            </Array>
          </mxGeometry>
        </mxCell>
        <mxCell id="gbL5R33CATIOaNU3N9NX-53" value="Write Analytics Results" style="curved=1;startArrow=none;endArrow=block;exitX=1;exitY=0.9;entryX=1;entryY=0.29;rounded=0;" edge="1" parent="1" source="gbL5R33CATIOaNU3N9NX-17" target="gbL5R33CATIOaNU3N9NX-20">
          <mxGeometry relative="1" as="geometry">
            <Array as="points">
              <mxPoint x="2579" y="2805" />
              <mxPoint x="2303" y="2850" />
              <mxPoint x="2303" y="2895" />
            </Array>
          </mxGeometry>
        </mxCell>
        <mxCell id="gbL5R33CATIOaNU3N9NX-54" value="Archive Reports" style="curved=1;startArrow=none;endArrow=block;exitX=1;exitY=0.63;entryX=0.99;entryY=0.32;rounded=0;" edge="1" parent="1" source="gbL5R33CATIOaNU3N9NX-17" target="gbL5R33CATIOaNU3N9NX-21">
          <mxGeometry relative="1" as="geometry">
            <Array as="points">
              <mxPoint x="3189" y="2805" />
              <mxPoint x="3189" y="2895" />
            </Array>
          </mxGeometry>
        </mxCell>
        <mxCell id="gbL5R33CATIOaNU3N9NX-55" value="Generate Scheduled Reports" style="curved=1;startArrow=none;endArrow=block;exitX=0.45;exitY=1.01;entryX=0.99;entryY=0.39;rounded=0;" edge="1" parent="1" source="gbL5R33CATIOaNU3N9NX-18" target="gbL5R33CATIOaNU3N9NX-21">
          <mxGeometry relative="1" as="geometry">
            <Array as="points">
              <mxPoint x="3341" y="2805" />
              <mxPoint x="3341" y="2895" />
            </Array>
          </mxGeometry>
        </mxCell>
        <mxCell id="gbL5R33CATIOaNU3N9NX-56" value="Write Report Metadata" style="curved=1;startArrow=none;endArrow=block;exitX=0;exitY=0.73;entryX=1;entryY=0.35;rounded=0;" edge="1" parent="1" source="gbL5R33CATIOaNU3N9NX-18" target="gbL5R33CATIOaNU3N9NX-20">
          <mxGeometry relative="1" as="geometry">
            <Array as="points">
              <mxPoint x="2683" y="2805" />
              <mxPoint x="2490" y="2850" />
              <mxPoint x="2490" y="2895" />
            </Array>
          </mxGeometry>
        </mxCell>
        <mxCell id="gbL5R33CATIOaNU3N9NX-57" value="Push Reports" style="curved=1;startArrow=none;endArrow=block;exitX=1;exitY=0.97;entryX=0.36;entryY=0.01;rounded=0;" edge="1" parent="1" source="gbL5R33CATIOaNU3N9NX-18" target="gbL5R33CATIOaNU3N9NX-22">
          <mxGeometry relative="1" as="geometry">
            <Array as="points">
              <mxPoint x="3697" y="2805" />
              <mxPoint x="3954" y="2850" />
              <mxPoint x="3954" y="2895" />
            </Array>
          </mxGeometry>
        </mxCell>
        <mxCell id="gbL5R33CATIOaNU3N9NX-58" value="Authenticate Users" style="curved=1;startArrow=none;endArrow=block;exitX=0.31;exitY=1;entryX=0.23;entryY=-0.01;rounded=0;" edge="1" parent="1" source="gbL5R33CATIOaNU3N9NX-10" target="gbL5R33CATIOaNU3N9NX-24">
          <mxGeometry relative="1" as="geometry">
            <Array as="points">
              <mxPoint x="4468" y="2144" />
            </Array>
          </mxGeometry>
        </mxCell>
        <mxCell id="gbL5R33CATIOaNU3N9NX-59" value="Role-Based Access" style="curved=1;startArrow=none;endArrow=block;exitX=0.53;exitY=-0.01;entryX=0.79;entryY=1;rounded=0;" edge="1" parent="1" source="gbL5R33CATIOaNU3N9NX-24" target="gbL5R33CATIOaNU3N9NX-10">
          <mxGeometry relative="1" as="geometry">
            <Array as="points">
              <mxPoint x="4625" y="2144" />
            </Array>
          </mxGeometry>
        </mxCell>
        <mxCell id="gbL5R33CATIOaNU3N9NX-60" value="Access Data" style="curved=1;startArrow=none;endArrow=block;exitX=0.5;exitY=1;entryX=0.24;entryY=-0.01;rounded=0;" edge="1" parent="1" source="gbL5R33CATIOaNU3N9NX-25" target="gbL5R33CATIOaNU3N9NX-11">
          <mxGeometry relative="1" as="geometry">
            <Array as="points">
              <mxPoint x="2593" y="2144" />
            </Array>
          </mxGeometry>
        </mxCell>
        <mxCell id="gbL5R33CATIOaNU3N9NX-61" value="Specialized Access" style="curved=1;startArrow=none;endArrow=block;exitX=0.5;exitY=1;entryX=1;entryY=0.44;rounded=0;" edge="1" parent="1" source="gbL5R33CATIOaNU3N9NX-26" target="gbL5R33CATIOaNU3N9NX-11">
          <mxGeometry relative="1" as="geometry">
            <Array as="points">
              <mxPoint x="4263" y="2144" />
            </Array>
          </mxGeometry>
        </mxCell>
        <mxCell id="gbL5R33CATIOaNU3N9NX-62" value="Contamination Analysis" style="curved=1;startArrow=none;endArrow=block;exitX=0.5;exitY=1.01;entryX=1;entryY=0.23;rounded=0;" edge="1" parent="1" source="gbL5R33CATIOaNU3N9NX-27" target="gbL5R33CATIOaNU3N9NX-15">
          <mxGeometry relative="1" as="geometry">
            <Array as="points">
              <mxPoint x="1882" y="2677" />
            </Array>
          </mxGeometry>
        </mxCell>
        <mxCell id="gbL5R33CATIOaNU3N9NX-63" value="Metrics" style="curved=1;startArrow=none;endArrow=block;exitX=0.6;exitY=1.01;entryX=0.52;entryY=0.01;rounded=0;" edge="1" parent="1" source="gbL5R33CATIOaNU3N9NX-28" target="gbL5R33CATIOaNU3N9NX-22">
          <mxGeometry relative="1" as="geometry">
            <Array as="points">
              <mxPoint x="4022" y="2587" />
              <mxPoint x="4022" y="2895" />
            </Array>
          </mxGeometry>
        </mxCell>
        <mxCell id="gbL5R33CATIOaNU3N9NX-64" value="System Alerts" style="curved=1;startArrow=none;endArrow=block;exitX=0.27;exitY=1.01;entryX=1;entryY=0.41;rounded=0;" edge="1" parent="1" source="gbL5R33CATIOaNU3N9NX-28" target="gbL5R33CATIOaNU3N9NX-16">
          <mxGeometry relative="1" as="geometry">
            <Array as="points">
              <mxPoint x="3902" y="2587" />
              <mxPoint x="3902" y="2677" />
            </Array>
          </mxGeometry>
        </mxCell>
        <mxCell id="gbL5R33CATIOaNU3N9NX-65" value="" style="curved=1;startArrow=none;endArrow=block;exitX=0.62;exitY=1;entryX=0.5;entryY=0.01;rounded=0;" edge="1" parent="1" source="gbL5R33CATIOaNU3N9NX-13" target="gbL5R33CATIOaNU3N9NX-29">
          <mxGeometry relative="1" as="geometry">
            <Array as="points">
              <mxPoint x="4312" y="2447" />
            </Array>
          </mxGeometry>
        </mxCell>
        <mxCell id="gbL5R33CATIOaNU3N9NX-66" value="" style="curved=1;startArrow=none;endArrow=block;exitX=0.5;exitY=1.01;entryX=0.64;entryY=0.01;rounded=0;" edge="1" parent="1" source="gbL5R33CATIOaNU3N9NX-29" target="gbL5R33CATIOaNU3N9NX-22">
          <mxGeometry relative="1" as="geometry">
            <Array as="points">
              <mxPoint x="4312" y="2587" />
              <mxPoint x="4070" y="2632" />
              <mxPoint x="4070" y="2895" />
            </Array>
          </mxGeometry>
        </mxCell>
        <mxCell id="cdl-6uTs2dhU0GSLFuQA-1" value="User Access" style="whiteSpace=wrap;strokeWidth=2;" vertex="1" parent="1">
          <mxGeometry x="4333" y="4565" width="244" height="104" as="geometry" />
        </mxCell>
        <mxCell id="cdl-6uTs2dhU0GSLFuQA-2" value="Monitoring" style="whiteSpace=wrap;strokeWidth=2;" vertex="1" parent="1">
          <mxGeometry x="850" y="3848" width="359" height="515" as="geometry" />
        </mxCell>
        <mxCell id="cdl-6uTs2dhU0GSLFuQA-3" value="Workers" style="whiteSpace=wrap;strokeWidth=2;" vertex="1" parent="1">
          <mxGeometry x="1229" y="4017" width="1355" height="128" as="geometry" />
        </mxCell>
        <mxCell id="cdl-6uTs2dhU0GSLFuQA-4" value="Storage" style="whiteSpace=wrap;strokeWidth=2;" vertex="1" parent="1">
          <mxGeometry x="1733" y="4235" width="1915" height="128" as="geometry" />
        </mxCell>
        <mxCell id="cdl-6uTs2dhU0GSLFuQA-5" value="AI Model Hosting" style="whiteSpace=wrap;strokeWidth=2;" vertex="1" parent="1">
          <mxGeometry x="2608" y="3848" width="1148" height="297" as="geometry" />
        </mxCell>
        <mxCell id="cdl-6uTs2dhU0GSLFuQA-6" value="External Integration APIs" style="whiteSpace=wrap;strokeWidth=2;" vertex="1" parent="1">
          <mxGeometry x="2061" y="3419" width="2314" height="230" as="geometry" />
        </mxCell>
        <mxCell id="cdl-6uTs2dhU0GSLFuQA-7" value="UserRequests" style="whiteSpace=wrap;strokeWidth=2;" vertex="1" parent="1">
          <mxGeometry x="3803" y="4017" width="866" height="497" as="geometry" />
        </mxCell>
        <mxCell id="cdl-6uTs2dhU0GSLFuQA-8" value="IoT Sensors" style="whiteSpace=wrap;strokeWidth=2;" vertex="1" parent="1">
          <mxGeometry x="4430" y="3040" width="140" height="54" as="geometry" />
        </mxCell>
        <mxCell id="cdl-6uTs2dhU0GSLFuQA-9" value="DNS Load Balancer" style="whiteSpace=wrap;strokeWidth=2;" vertex="1" parent="1">
          <mxGeometry x="4403" y="3166" width="194" height="54" as="geometry" />
        </mxCell>
        <mxCell id="cdl-6uTs2dhU0GSLFuQA-10" value="Load Balancers" style="whiteSpace=wrap;strokeWidth=2;" vertex="1" parent="1">
          <mxGeometry x="4416" y="3293" width="168" height="54" as="geometry" />
        </mxCell>
        <mxCell id="cdl-6uTs2dhU0GSLFuQA-11" value="App Server" style="whiteSpace=wrap;strokeWidth=2;" vertex="1" parent="1">
          <mxGeometry x="4431" y="3444" width="138" height="54" as="geometry" />
        </mxCell>
        <mxCell id="cdl-6uTs2dhU0GSLFuQA-12" value="API Gateway" style="whiteSpace=wrap;strokeWidth=2;" vertex="1" parent="1">
          <mxGeometry x="3299" y="3571" width="150" height="54" as="geometry" />
        </mxCell>
        <mxCell id="cdl-6uTs2dhU0GSLFuQA-13" value="Read API" style="whiteSpace=wrap;strokeWidth=2;" vertex="1" parent="1">
          <mxGeometry x="4199" y="4054" width="121" height="54" as="geometry" />
        </mxCell>
        <mxCell id="cdl-6uTs2dhU0GSLFuQA-14" value="Write API" style="whiteSpace=wrap;strokeWidth=2;" vertex="1" parent="1">
          <mxGeometry x="2074" y="3722" width="125" height="54" as="geometry" />
        </mxCell>
        <mxCell id="cdl-6uTs2dhU0GSLFuQA-15" value="RabbitMQ Message Broker" style="whiteSpace=wrap;strokeWidth=2;" vertex="1" parent="1">
          <mxGeometry x="2015" y="3873" width="243" height="54" as="geometry" />
        </mxCell>
        <mxCell id="cdl-6uTs2dhU0GSLFuQA-16" value="Contamination Detection Workers" style="whiteSpace=wrap;strokeWidth=2;" vertex="1" parent="1">
          <mxGeometry x="3064" y="4042" width="260" height="78" as="geometry" />
        </mxCell>
        <mxCell id="cdl-6uTs2dhU0GSLFuQA-17" value="Notification Workers" style="whiteSpace=wrap;strokeWidth=2;" vertex="1" parent="1">
          <mxGeometry x="2044" y="4054" width="207" height="54" as="geometry" />
        </mxCell>
        <mxCell id="cdl-6uTs2dhU0GSLFuQA-18" value="Analytics Workers" style="whiteSpace=wrap;strokeWidth=2;" vertex="1" parent="1">
          <mxGeometry x="2356" y="4054" width="187" height="54" as="geometry" />
        </mxCell>
        <mxCell id="cdl-6uTs2dhU0GSLFuQA-19" value="Report Generation Workers" style="whiteSpace=wrap;strokeWidth=2;" vertex="1" parent="1">
          <mxGeometry x="1613" y="4054" width="254" height="54" as="geometry" />
        </mxCell>
        <mxCell id="cdl-6uTs2dhU0GSLFuQA-20" value="Redis Cache" style="whiteSpace=wrap;strokeWidth=2;" vertex="1" parent="1">
          <mxGeometry x="1768" y="4272" width="146" height="54" as="geometry" />
        </mxCell>
        <mxCell id="cdl-6uTs2dhU0GSLFuQA-21" value="PostgreSQL Database Cluster" style="whiteSpace=wrap;strokeWidth=2;" vertex="1" parent="1">
          <mxGeometry x="2362" y="4260" width="260" height="78" as="geometry" />
        </mxCell>
        <mxCell id="cdl-6uTs2dhU0GSLFuQA-22" value="F1" style="whiteSpace=wrap;strokeWidth=2;" vertex="1" parent="1">
          <mxGeometry x="3297" y="4272" width="77" height="54" as="geometry" />
        </mxCell>
        <mxCell id="cdl-6uTs2dhU0GSLFuQA-23" value="User Dashboard" style="whiteSpace=wrap;strokeWidth=2;" vertex="1" parent="1">
          <mxGeometry x="943" y="4272" width="171" height="54" as="geometry" />
        </mxCell>
        <mxCell id="cdl-6uTs2dhU0GSLFuQA-24" value="External Systems" style="whiteSpace=wrap;strokeWidth=2;" vertex="1" parent="1">
          <mxGeometry x="1244" y="4272" width="181" height="54" as="geometry" />
        </mxCell>
        <mxCell id="cdl-6uTs2dhU0GSLFuQA-25" value="User Dashboard" style="whiteSpace=wrap;strokeWidth=2;" vertex="1" parent="1">
          <mxGeometry x="4441" y="4436" width="171" height="54" as="geometry" />
        </mxCell>
        <mxCell id="cdl-6uTs2dhU0GSLFuQA-26" value="Load Balancer" style="whiteSpace=wrap;strokeWidth=2;" vertex="1" parent="1">
          <mxGeometry x="4398" y="4272" width="161" height="54" as="geometry" />
        </mxCell>
        <mxCell id="cdl-6uTs2dhU0GSLFuQA-27" value="Authentication Service" style="whiteSpace=wrap;strokeWidth=2;" vertex="1" parent="1">
          <mxGeometry x="4467" y="3571" width="223" height="54" as="geometry" />
        </mxCell>
        <mxCell id="cdl-6uTs2dhU0GSLFuQA-28" value="Public API" style="whiteSpace=wrap;strokeWidth=2;" vertex="1" parent="1">
          <mxGeometry x="3051" y="3444" width="131" height="54" as="geometry" />
        </mxCell>
        <mxCell id="cdl-6uTs2dhU0GSLFuQA-29" value="Partner API" style="whiteSpace=wrap;strokeWidth=2;" vertex="1" parent="1">
          <mxGeometry x="2099" y="3444" width="140" height="54" as="geometry" />
        </mxCell>
        <mxCell id="cdl-6uTs2dhU0GSLFuQA-30" value="AI Model Inference Service" style="whiteSpace=wrap;strokeWidth=2;" vertex="1" parent="1">
          <mxGeometry x="2645" y="3873" width="251" height="54" as="geometry" />
        </mxCell>
        <mxCell id="cdl-6uTs2dhU0GSLFuQA-31" value="Monitoring Service" style="whiteSpace=wrap;strokeWidth=2;" vertex="1" parent="1">
          <mxGeometry x="885" y="3873" width="192" height="54" as="geometry" />
        </mxCell>
        <mxCell id="cdl-6uTs2dhU0GSLFuQA-32" value="CDN" style="whiteSpace=wrap;strokeWidth=2;" vertex="1" parent="1">
          <mxGeometry x="4422" y="4590" width="90" height="54" as="geometry" />
        </mxCell>
        <mxCell id="cdl-6uTs2dhU0GSLFuQA-33" value="Raw Data" style="curved=1;startArrow=none;endArrow=block;exitX=0.5;exitY=1;entryX=0.5;entryY=0.01;rounded=0;" edge="1" parent="1" source="cdl-6uTs2dhU0GSLFuQA-8" target="cdl-6uTs2dhU0GSLFuQA-9">
          <mxGeometry relative="1" as="geometry">
            <Array as="points" />
          </mxGeometry>
        </mxCell>
        <mxCell id="cdl-6uTs2dhU0GSLFuQA-34" value="Distribute Traffic" style="curved=1;startArrow=none;endArrow=block;exitX=0.5;exitY=1.01;entryX=0.5;entryY=0;rounded=0;" edge="1" parent="1" source="cdl-6uTs2dhU0GSLFuQA-9" target="cdl-6uTs2dhU0GSLFuQA-10">
          <mxGeometry relative="1" as="geometry">
            <Array as="points" />
          </mxGeometry>
        </mxCell>
        <mxCell id="cdl-6uTs2dhU0GSLFuQA-35" value="Requests" style="curved=1;startArrow=none;endArrow=block;exitX=0.5;exitY=1;entryX=0.5;entryY=0;rounded=0;" edge="1" parent="1" source="cdl-6uTs2dhU0GSLFuQA-10" target="cdl-6uTs2dhU0GSLFuQA-11">
          <mxGeometry relative="1" as="geometry">
            <Array as="points" />
          </mxGeometry>
        </mxCell>
        <mxCell id="cdl-6uTs2dhU0GSLFuQA-36" value="API Requests" style="curved=1;startArrow=none;endArrow=block;exitX=0;exitY=0.88;entryX=1;entryY=0.4;rounded=0;" edge="1" parent="1" source="cdl-6uTs2dhU0GSLFuQA-11" target="cdl-6uTs2dhU0GSLFuQA-12">
          <mxGeometry relative="1" as="geometry">
            <Array as="points">
              <mxPoint x="4286" y="3534" />
            </Array>
          </mxGeometry>
        </mxCell>
        <mxCell id="cdl-6uTs2dhU0GSLFuQA-37" value="Read Operations" style="curved=1;startArrow=none;endArrow=block;exitX=1;exitY=0.57;entryX=0.5;entryY=0.01;rounded=0;" edge="1" parent="1" source="cdl-6uTs2dhU0GSLFuQA-12" target="cdl-6uTs2dhU0GSLFuQA-13">
          <mxGeometry relative="1" as="geometry">
            <Array as="points">
              <mxPoint x="4260" y="3650" />
            </Array>
          </mxGeometry>
        </mxCell>
        <mxCell id="cdl-6uTs2dhU0GSLFuQA-38" value="Write Operations" style="curved=1;startArrow=none;endArrow=block;exitX=0;exitY=0.55;entryX=0.5;entryY=0;rounded=0;" edge="1" parent="1" source="cdl-6uTs2dhU0GSLFuQA-12" target="cdl-6uTs2dhU0GSLFuQA-14">
          <mxGeometry relative="1" as="geometry">
            <Array as="points">
              <mxPoint x="2136" y="3650" />
            </Array>
          </mxGeometry>
        </mxCell>
        <mxCell id="cdl-6uTs2dhU0GSLFuQA-39" value="Publish Tasks" style="curved=1;startArrow=none;endArrow=block;exitX=0.5;exitY=1;entryX=0.5;entryY=0.01;rounded=0;" edge="1" parent="1" source="cdl-6uTs2dhU0GSLFuQA-14" target="cdl-6uTs2dhU0GSLFuQA-15">
          <mxGeometry relative="1" as="geometry">
            <Array as="points" />
          </mxGeometry>
        </mxCell>
        <mxCell id="cdl-6uTs2dhU0GSLFuQA-40" value="Contamination Detection Tasks" style="curved=1;startArrow=none;endArrow=block;exitX=1;exitY=0.62;entryX=1;entryY=0.2;rounded=0;" edge="1" parent="1" source="cdl-6uTs2dhU0GSLFuQA-15" target="cdl-6uTs2dhU0GSLFuQA-16">
          <mxGeometry relative="1" as="geometry">
            <Array as="points">
              <mxPoint x="3541" y="3972" />
              <mxPoint x="3541" y="4017" />
            </Array>
          </mxGeometry>
        </mxCell>
        <mxCell id="cdl-6uTs2dhU0GSLFuQA-41" value="Notification Tasks" style="curved=1;startArrow=none;endArrow=block;exitX=0.52;exitY=1.01;entryX=0.5;entryY=0.01;rounded=0;" edge="1" parent="1" source="cdl-6uTs2dhU0GSLFuQA-15" target="cdl-6uTs2dhU0GSLFuQA-17">
          <mxGeometry relative="1" as="geometry">
            <Array as="points">
              <mxPoint x="2148" y="3972" />
            </Array>
          </mxGeometry>
        </mxCell>
        <mxCell id="cdl-6uTs2dhU0GSLFuQA-42" value="Analytics Tasks" style="curved=1;startArrow=none;endArrow=block;exitX=0.98;exitY=1.01;entryX=0.5;entryY=0.01;rounded=0;" edge="1" parent="1" source="cdl-6uTs2dhU0GSLFuQA-15" target="cdl-6uTs2dhU0GSLFuQA-18">
          <mxGeometry relative="1" as="geometry">
            <Array as="points">
              <mxPoint x="2450" y="3972" />
            </Array>
          </mxGeometry>
        </mxCell>
        <mxCell id="cdl-6uTs2dhU0GSLFuQA-43" value="Report Tasks" style="curved=1;startArrow=none;endArrow=block;exitX=0;exitY=0.92;entryX=0.5;entryY=0.01;rounded=0;" edge="1" parent="1" source="cdl-6uTs2dhU0GSLFuQA-15" target="cdl-6uTs2dhU0GSLFuQA-19">
          <mxGeometry relative="1" as="geometry">
            <Array as="points">
              <mxPoint x="1740" y="3972" />
            </Array>
          </mxGeometry>
        </mxCell>
        <mxCell id="cdl-6uTs2dhU0GSLFuQA-44" value="Fetch Frequently Accessed Data" style="curved=1;startArrow=none;endArrow=block;exitX=0;exitY=0.72;entryX=1;entryY=0.47;rounded=0;" edge="1" parent="1" source="cdl-6uTs2dhU0GSLFuQA-13" target="cdl-6uTs2dhU0GSLFuQA-20">
          <mxGeometry relative="1" as="geometry">
            <Array as="points">
              <mxPoint x="3920" y="4145" />
              <mxPoint x="3920" y="4235" />
            </Array>
          </mxGeometry>
        </mxCell>
        <mxCell id="cdl-6uTs2dhU0GSLFuQA-45" value="Query Structured Data" style="curved=1;startArrow=none;endArrow=block;exitX=0.01;exitY=1.01;entryX=1;entryY=0.44;rounded=0;" edge="1" parent="1" source="cdl-6uTs2dhU0GSLFuQA-13" target="cdl-6uTs2dhU0GSLFuQA-21">
          <mxGeometry relative="1" as="geometry">
            <Array as="points">
              <mxPoint x="4120" y="4145" />
              <mxPoint x="4120" y="4235" />
            </Array>
          </mxGeometry>
        </mxCell>
        <mxCell id="cdl-6uTs2dhU0GSLFuQA-46" value="Retrieve Historical Data" style="curved=1;startArrow=none;endArrow=block;exitX=0.68;exitY=1.01;entryX=1;entryY=0.46;rounded=0;" edge="1" parent="1" source="cdl-6uTs2dhU0GSLFuQA-13" target="cdl-6uTs2dhU0GSLFuQA-22">
          <mxGeometry relative="1" as="geometry">
            <Array as="points">
              <mxPoint x="4310" y="4145" />
              <mxPoint x="4310" y="4235" />
            </Array>
          </mxGeometry>
        </mxCell>
        <mxCell id="cdl-6uTs2dhU0GSLFuQA-47" value="Read Thresholds" style="curved=1;startArrow=none;endArrow=block;exitX=0;exitY=0.73;entryX=0.5;entryY=0.01;rounded=0;" edge="1" parent="1" source="cdl-6uTs2dhU0GSLFuQA-16" target="cdl-6uTs2dhU0GSLFuQA-20">
          <mxGeometry relative="1" as="geometry">
            <Array as="points">
              <mxPoint x="2710" y="4145" />
              <mxPoint x="1841" y="4190" />
            </Array>
          </mxGeometry>
        </mxCell>
        <mxCell id="cdl-6uTs2dhU0GSLFuQA-48" value="Write Processed Data" style="curved=1;startArrow=none;endArrow=block;exitX=0.62;exitY=1.01;entryX=1;entryY=0.26;rounded=0;" edge="1" parent="1" source="cdl-6uTs2dhU0GSLFuQA-16" target="cdl-6uTs2dhU0GSLFuQA-21">
          <mxGeometry relative="1" as="geometry">
            <Array as="points">
              <mxPoint x="3245" y="4145" />
              <mxPoint x="2934" y="4190" />
              <mxPoint x="2934" y="4235" />
            </Array>
          </mxGeometry>
        </mxCell>
        <mxCell id="cdl-6uTs2dhU0GSLFuQA-49" value="Store Raw Data" style="curved=1;startArrow=none;endArrow=block;exitX=1;exitY=0.77;entryX=1;entryY=0.34;rounded=0;" edge="1" parent="1" source="cdl-6uTs2dhU0GSLFuQA-16" target="cdl-6uTs2dhU0GSLFuQA-22">
          <mxGeometry relative="1" as="geometry">
            <Array as="points">
              <mxPoint x="3601" y="4145" />
              <mxPoint x="3601" y="4235" />
            </Array>
          </mxGeometry>
        </mxCell>
        <mxCell id="cdl-6uTs2dhU0GSLFuQA-50" value="Fetch User Preferences" style="curved=1;startArrow=none;endArrow=block;exitX=0.28;exitY=1.01;entryX=1;entryY=0.09;rounded=0;" edge="1" parent="1" source="cdl-6uTs2dhU0GSLFuQA-17" target="cdl-6uTs2dhU0GSLFuQA-21">
          <mxGeometry relative="1" as="geometry">
            <Array as="points">
              <mxPoint x="2038" y="4145" />
              <mxPoint x="2751" y="4190" />
              <mxPoint x="2751" y="4235" />
            </Array>
          </mxGeometry>
        </mxCell>
        <mxCell id="cdl-6uTs2dhU0GSLFuQA-51" value="Log Notifications" style="curved=1;startArrow=none;endArrow=block;exitX=0.09;exitY=1.01;entryX=0.71;entryY=0.01;rounded=0;" edge="1" parent="1" source="cdl-6uTs2dhU0GSLFuQA-17" target="cdl-6uTs2dhU0GSLFuQA-21">
          <mxGeometry relative="1" as="geometry">
            <Array as="points">
              <mxPoint x="1944" y="4145" />
              <mxPoint x="2584" y="4190" />
              <mxPoint x="2584" y="4235" />
            </Array>
          </mxGeometry>
        </mxCell>
        <mxCell id="cdl-6uTs2dhU0GSLFuQA-52" value="Send Alerts" style="curved=1;startArrow=none;endArrow=block;exitX=0;exitY=0.65;entryX=0.72;entryY=0.01;rounded=0;" edge="1" parent="1" source="cdl-6uTs2dhU0GSLFuQA-17" target="cdl-6uTs2dhU0GSLFuQA-23">
          <mxGeometry relative="1" as="geometry">
            <Array as="points">
              <mxPoint x="1301" y="4145" />
              <mxPoint x="1117" y="4190" />
              <mxPoint x="1117" y="4235" />
            </Array>
          </mxGeometry>
        </mxCell>
        <mxCell id="cdl-6uTs2dhU0GSLFuQA-53" value="Send Notifications" style="curved=1;startArrow=none;endArrow=block;exitX=0;exitY=0.66;entryX=0.5;entryY=0.01;rounded=0;" edge="1" parent="1" source="cdl-6uTs2dhU0GSLFuQA-17" target="cdl-6uTs2dhU0GSLFuQA-24">
          <mxGeometry relative="1" as="geometry">
            <Array as="points">
              <mxPoint x="1334" y="4145" />
            </Array>
          </mxGeometry>
        </mxCell>
        <mxCell id="cdl-6uTs2dhU0GSLFuQA-54" value="Read Historical Data" style="curved=1;startArrow=none;endArrow=block;exitX=0.64;exitY=1.01;entryX=0.93;entryY=0.01;rounded=0;" edge="1" parent="1" source="cdl-6uTs2dhU0GSLFuQA-18" target="cdl-6uTs2dhU0GSLFuQA-22">
          <mxGeometry relative="1" as="geometry">
            <Array as="points">
              <mxPoint x="2510" y="4145" />
              <mxPoint x="3413" y="4190" />
              <mxPoint x="3413" y="4235" />
            </Array>
          </mxGeometry>
        </mxCell>
        <mxCell id="cdl-6uTs2dhU0GSLFuQA-55" value="Read Aggregated Data" style="curved=1;startArrow=none;endArrow=block;exitX=0;exitY=0.69;entryX=0.33;entryY=0.01;rounded=0;" edge="1" parent="1" source="cdl-6uTs2dhU0GSLFuQA-18" target="cdl-6uTs2dhU0GSLFuQA-21">
          <mxGeometry relative="1" as="geometry">
            <Array as="points">
              <mxPoint x="1853" y="4145" />
              <mxPoint x="2421" y="4190" />
              <mxPoint x="2421" y="4235" />
            </Array>
          </mxGeometry>
        </mxCell>
        <mxCell id="cdl-6uTs2dhU0GSLFuQA-56" value="Write Analytics Results" style="curved=1;startArrow=none;endArrow=block;exitX=0;exitY=0.67;entryX=0;entryY=0.09;rounded=0;" edge="1" parent="1" source="cdl-6uTs2dhU0GSLFuQA-18" target="cdl-6uTs2dhU0GSLFuQA-21">
          <mxGeometry relative="1" as="geometry">
            <Array as="points">
              <mxPoint x="1751" y="4145" />
              <mxPoint x="2237" y="4190" />
              <mxPoint x="2237" y="4235" />
            </Array>
          </mxGeometry>
        </mxCell>
        <mxCell id="cdl-6uTs2dhU0GSLFuQA-57" value="Archive Reports" style="curved=1;startArrow=none;endArrow=block;exitX=0.19;exitY=1.01;entryX=0.09;entryY=0.01;rounded=0;" edge="1" parent="1" source="cdl-6uTs2dhU0GSLFuQA-18" target="cdl-6uTs2dhU0GSLFuQA-22">
          <mxGeometry relative="1" as="geometry">
            <Array as="points">
              <mxPoint x="2312" y="4145" />
              <mxPoint x="3260" y="4190" />
              <mxPoint x="3260" y="4235" />
            </Array>
          </mxGeometry>
        </mxCell>
        <mxCell id="cdl-6uTs2dhU0GSLFuQA-58" value="Generate Scheduled Reports" style="curved=1;startArrow=none;endArrow=block;exitX=1;exitY=0.82;entryX=0.01;entryY=0.31;rounded=0;" edge="1" parent="1" source="cdl-6uTs2dhU0GSLFuQA-19" target="cdl-6uTs2dhU0GSLFuQA-22">
          <mxGeometry relative="1" as="geometry">
            <Array as="points">
              <mxPoint x="2226" y="4145" />
              <mxPoint x="3107" y="4190" />
              <mxPoint x="3107" y="4235" />
            </Array>
          </mxGeometry>
        </mxCell>
        <mxCell id="cdl-6uTs2dhU0GSLFuQA-59" value="Write Report Metadata" style="curved=1;startArrow=none;endArrow=block;exitX=0.28;exitY=1.01;entryX=0;entryY=0.26;rounded=0;" edge="1" parent="1" source="cdl-6uTs2dhU0GSLFuQA-19" target="cdl-6uTs2dhU0GSLFuQA-21">
          <mxGeometry relative="1" as="geometry">
            <Array as="points">
              <mxPoint x="1609" y="4145" />
              <mxPoint x="2049" y="4190" />
              <mxPoint x="2049" y="4235" />
            </Array>
          </mxGeometry>
        </mxCell>
        <mxCell id="cdl-6uTs2dhU0GSLFuQA-60" value="Push Reports" style="curved=1;startArrow=none;endArrow=block;exitX=0;exitY=0.84;entryX=0.45;entryY=0.01;rounded=0;" edge="1" parent="1" source="cdl-6uTs2dhU0GSLFuQA-19" target="cdl-6uTs2dhU0GSLFuQA-23">
          <mxGeometry relative="1" as="geometry">
            <Array as="points">
              <mxPoint x="1281" y="4145" />
              <mxPoint x="1007" y="4190" />
              <mxPoint x="1007" y="4235" />
            </Array>
          </mxGeometry>
        </mxCell>
        <mxCell id="cdl-6uTs2dhU0GSLFuQA-61" value="Request" style="curved=1;startArrow=none;endArrow=block;exitX=0.38;exitY=0;entryX=0.5;entryY=1.01;rounded=0;" edge="1" parent="1" source="cdl-6uTs2dhU0GSLFuQA-25" target="cdl-6uTs2dhU0GSLFuQA-26">
          <mxGeometry relative="1" as="geometry">
            <Array as="points">
              <mxPoint x="4478" y="4400" />
            </Array>
          </mxGeometry>
        </mxCell>
        <mxCell id="cdl-6uTs2dhU0GSLFuQA-62" value="Route" style="curved=1;startArrow=none;endArrow=block;exitX=0.4;exitY=0.01;entryX=1;entryY=0.91;rounded=0;" edge="1" parent="1" source="cdl-6uTs2dhU0GSLFuQA-26" target="cdl-6uTs2dhU0GSLFuQA-13">
          <mxGeometry relative="1" as="geometry">
            <Array as="points">
              <mxPoint x="4440" y="4235" />
              <mxPoint x="4440" y="4145" />
            </Array>
          </mxGeometry>
        </mxCell>
        <mxCell id="cdl-6uTs2dhU0GSLFuQA-63" value="Response" style="curved=1;startArrow=none;endArrow=block;exitX=1;exitY=0.77;entryX=0.64;entryY=0.01;rounded=0;" edge="1" parent="1" source="cdl-6uTs2dhU0GSLFuQA-13" target="cdl-6uTs2dhU0GSLFuQA-26">
          <mxGeometry relative="1" as="geometry">
            <Array as="points">
              <mxPoint x="4532" y="4145" />
              <mxPoint x="4532" y="4235" />
            </Array>
          </mxGeometry>
        </mxCell>
        <mxCell id="cdl-6uTs2dhU0GSLFuQA-64" value="Deliver Data" style="curved=1;startArrow=none;endArrow=block;exitX=0.75;exitY=1.01;entryX=0.62;entryY=0;rounded=0;" edge="1" parent="1" source="cdl-6uTs2dhU0GSLFuQA-26" target="cdl-6uTs2dhU0GSLFuQA-25">
          <mxGeometry relative="1" as="geometry">
            <Array as="points">
              <mxPoint x="4575" y="4363" />
              <mxPoint x="4575" y="4400" />
            </Array>
          </mxGeometry>
        </mxCell>
        <mxCell id="cdl-6uTs2dhU0GSLFuQA-65" value="Authenticate Users" style="curved=1;startArrow=none;endArrow=block;exitX=0.99;exitY=1;entryX=0.65;entryY=-0.01;rounded=0;" edge="1" parent="1" source="cdl-6uTs2dhU0GSLFuQA-11" target="cdl-6uTs2dhU0GSLFuQA-27">
          <mxGeometry relative="1" as="geometry">
            <Array as="points">
              <mxPoint x="4657" y="3534" />
            </Array>
          </mxGeometry>
        </mxCell>
        <mxCell id="cdl-6uTs2dhU0GSLFuQA-66" value="Role-Based Access" style="curved=1;startArrow=none;endArrow=block;exitX=0.35;exitY=-0.01;entryX=0.5;entryY=1;rounded=0;" edge="1" parent="1" source="cdl-6uTs2dhU0GSLFuQA-27" target="cdl-6uTs2dhU0GSLFuQA-11">
          <mxGeometry relative="1" as="geometry">
            <Array as="points">
              <mxPoint x="4500" y="3534" />
            </Array>
          </mxGeometry>
        </mxCell>
        <mxCell id="cdl-6uTs2dhU0GSLFuQA-67" value="Access Data" style="curved=1;startArrow=none;endArrow=block;exitX=0.5;exitY=1;entryX=0;entryY=0.15;rounded=0;" edge="1" parent="1" source="cdl-6uTs2dhU0GSLFuQA-28" target="cdl-6uTs2dhU0GSLFuQA-12">
          <mxGeometry relative="1" as="geometry">
            <Array as="points">
              <mxPoint x="3116" y="3534" />
            </Array>
          </mxGeometry>
        </mxCell>
        <mxCell id="cdl-6uTs2dhU0GSLFuQA-68" value="Specialized Access" style="curved=1;startArrow=none;endArrow=block;exitX=0.5;exitY=1;entryX=0;entryY=0.42;rounded=0;" edge="1" parent="1" source="cdl-6uTs2dhU0GSLFuQA-29" target="cdl-6uTs2dhU0GSLFuQA-12">
          <mxGeometry relative="1" as="geometry">
            <Array as="points">
              <mxPoint x="2169" y="3534" />
            </Array>
          </mxGeometry>
        </mxCell>
        <mxCell id="cdl-6uTs2dhU0GSLFuQA-69" value="Contamination Analysis" style="curved=1;startArrow=none;endArrow=block;exitX=0.5;exitY=1.01;entryX=0;entryY=0.25;rounded=0;" edge="1" parent="1" source="cdl-6uTs2dhU0GSLFuQA-30" target="cdl-6uTs2dhU0GSLFuQA-16">
          <mxGeometry relative="1" as="geometry">
            <Array as="points">
              <mxPoint x="2771" y="4017" />
            </Array>
          </mxGeometry>
        </mxCell>
        <mxCell id="cdl-6uTs2dhU0GSLFuQA-70" value="Metrics" style="curved=1;startArrow=none;endArrow=block;exitX=0.42;exitY=1.01;entryX=0.28;entryY=0.01;rounded=0;" edge="1" parent="1" source="cdl-6uTs2dhU0GSLFuQA-31" target="cdl-6uTs2dhU0GSLFuQA-23">
          <mxGeometry relative="1" as="geometry">
            <Array as="points">
              <mxPoint x="940" y="3972" />
              <mxPoint x="940" y="4235" />
            </Array>
          </mxGeometry>
        </mxCell>
        <mxCell id="cdl-6uTs2dhU0GSLFuQA-71" value="System Alerts" style="curved=1;startArrow=none;endArrow=block;exitX=0.67;exitY=1.01;entryX=0;entryY=0.39;rounded=0;" edge="1" parent="1" source="cdl-6uTs2dhU0GSLFuQA-31" target="cdl-6uTs2dhU0GSLFuQA-17">
          <mxGeometry relative="1" as="geometry">
            <Array as="points">
              <mxPoint x="1066" y="3972" />
              <mxPoint x="1066" y="4017" />
            </Array>
          </mxGeometry>
        </mxCell>
        <mxCell id="cdl-6uTs2dhU0GSLFuQA-72" value="" style="curved=1;startArrow=none;endArrow=block;exitX=0.5;exitY=1;entryX=0.84;entryY=0;rounded=0;" edge="1" parent="1" source="cdl-6uTs2dhU0GSLFuQA-25" target="cdl-6uTs2dhU0GSLFuQA-32">
          <mxGeometry relative="1" as="geometry">
            <Array as="points">
              <mxPoint x="4527" y="4565" />
            </Array>
          </mxGeometry>
        </mxCell>
        <mxCell id="cdl-6uTs2dhU0GSLFuQA-73" value="" style="curved=1;startArrow=none;endArrow=block;exitX=0.07;exitY=0;entryX=0.28;entryY=1.01;rounded=0;" edge="1" parent="1" source="cdl-6uTs2dhU0GSLFuQA-32" target="cdl-6uTs2dhU0GSLFuQA-26">
          <mxGeometry relative="1" as="geometry">
            <Array as="points">
              <mxPoint x="4393" y="4565" />
              <mxPoint x="4393" y="4363" />
            </Array>
          </mxGeometry>
        </mxCell>
      </root>
    </mxGraphModel>
  </diagram>
</mxfile>
